<?xml version="1.0" encoding="utf-8"?>
<!-- Generator: Adobe Illustrator 22.1.0, SVG Export Plug-In . SVG Version: 6.00 Build 0)  -->
<svg version="1.1" id="Shape_1_1_" xmlns="http://www.w3.org/2000/svg" xmlns:xlink="http://www.w3.org/1999/xlink" x="0px" y="0px"
	 viewBox="0 0 512 512" style="enable-background:new 0 0 512 512;" xml:space="preserve">
<style type="text/css">
	.st0{fill-rule:evenodd;clip-rule:evenodd;}
	.st1{font-family:'Arial-BoldMT';}
	.st2{font-size:60px;}
</style>
<g id="Shape_1">
	<g>
		<path class="st0" d="M85.3,332.8H145c4.7,0,8.5-3.8,8.5-8.5v-85.3c0-4.7-3.8-8.5-8.5-8.5H85.3c-4.7,0-8.5,3.8-8.5,8.5v85.3
			C76.8,329,80.6,332.8,85.3,332.8z M93.9,247.5h42.7v68.3H93.9V247.5z M230.4,332.8h59.7c4.7,0,8.5-3.8,8.5-8.5v-85.3
			c0-4.7-3.8-8.5-8.5-8.5h-59.7c-4.7,0-8.5,3.8-8.5,8.5v85.3C221.8,329,225.7,332.8,230.4,332.8z M238.9,247.5h42.7v68.3h-42.7
			V247.5z M230.4,469.3h59.7c4.7,0,8.5-3.8,8.5-8.5v-85.3c0-4.7-3.8-8.5-8.5-8.5h-59.7c-4.7,0-8.5,3.8-8.5,8.5v85.3
			C221.8,465.5,225.7,469.3,230.4,469.3z M238.9,384h42.7v68.3h-42.7V384z M366.9,332.8h59.7c4.7,0,8.5-3.8,8.5-8.5v-85.3
			c0-4.7-3.8-8.5-8.5-8.5h-59.7c-4.7,0-8.5,3.8-8.5,8.5v85.3C358.3,329,362.2,332.8,366.9,332.8z M375.4,247.5h42.7v68.3h-42.7
			V247.5z M85.3,469.3H145c4.7,0,8.5-3.8,8.5-8.5v-85.3c0-4.7-3.8-8.5-8.5-8.5H85.3c-4.7,0-8.5,3.8-8.5,8.5v85.3
			C76.8,465.5,80.6,469.3,85.3,469.3z M93.9,384h42.7v68.3H93.9V384z M366.9,469.3h59.7c4.7,0,8.5-3.8,8.5-8.5v-85.3
			c0-4.7-3.8-8.5-8.5-8.5h-59.7c-4.7,0-8.5,3.8-8.5,8.5v85.3C358.3,465.5,362.2,469.3,366.9,469.3z M375.4,384h42.7v68.3h-42.7V384z
			 M477.8,494.9V204.8h8.5c4.7,0,8.5-3.8,8.5-8.5v-42.7c0-4.7-3.8-8.5-8.5-8.5h-8.5v-34.1c0-4.7-3.8-8.5-8.5-8.5h-17.1V8.5
			c0-4.7-3.8-8.5-8.5-8.5H68.3c-4.7,0-8.5,3.8-8.5,8.5v93.9H42.7c-4.7,0-8.5,3.8-8.5,8.5v34.1h-8.5c-4.7,0-8.5,3.8-8.5,8.5v42.7
			c0,4.7,3.8,8.5,8.5,8.5h8.5v290.1H0V512h512v-17.1H477.8z M76.8,17.1h358.3v85.3H76.8V17.1z M51.2,119.5h409.5v25.6H51.2V119.5z
			 M34.1,162.1h443.7v25.6H34.1V162.1z M460.7,494.9H51.2V204.8h409.5V494.9z"/>
	</g>
</g>
<text transform="matrix(1 0 0 1 175.2239 81.7335)" class="st1 st2">ΚΑΑΥ</text>
</svg>
