<svg xmlns="http://www.w3.org/2000/svg" viewBox="0 0 772.08526 467.22523"><title>νεο κααυ</title><path d="M473.5017,916.14435a72.4983,72.4983,0,1,0,72.49976-72.49683A72.49989,72.49989,0,0,0,473.5017,916.14435Zm72.49976-57.99864a57.99864,57.99864,0,1,1-57.99863,57.99864A57.99792,57.99792,0,0,1,546.00146,858.14571Z" transform="translate(-274.5 -613)"/><path d="M362.23062,989.34662a549.08354,549.08354,0,0,0,69.75046-214.595l67.42523,67.02453a7.23755,7.23755,0,0,0,5.07452,2.10883,6.85342,6.85342,0,0,0,1.17283-.09363A7.23736,7.23736,0,0,0,510.968,839.878a70.77617,70.77617,0,0,0-13.2815-81.8006l-5.92855-5.93145h50.99377a7.25482,7.25482,0,0,0,6.882-9.54651,70.78451,70.78451,0,0,0-67.238-48.45215h-9.42367l36.206-36.41657a7.251,7.251,0,0,0-1.89819-11.59973,70.80067,70.80067,0,0,0-81.84446,13.27564l-6.923,6.923a70.91161,70.91161,0,0,0-6.28537,7.25055,69.66673,69.66673,0,0,0-6.22981-7.25055l-6.923-6.923A70.76672,70.76672,0,0,0,317.28241,646.131a7.24749,7.24749,0,0,0-1.89819,11.59973l36.24694,36.41657h-9.51727a70.78176,70.78176,0,0,0-67.23806,48.45215,7.25264,7.25264,0,0,0,6.882,9.54651h50.944l-5.92854,5.93145A70.78149,70.78149,0,0,0,313.489,839.878a7.24791,7.24791,0,0,0,5.31435,3.91339,6.88744,6.88744,0,0,0,1.17576.09363,7.23981,7.23981,0,0,0,5.10961-2.10883l62.78653-62.415a392.94472,392.94472,0,0,1-75.79892,191.60021,270.522,270.522,0,0,0-29.59306-6.03094l-4.5305-.45624L276.502,978.908l4.22632.41241c7.25056,1.03827,14.45434,2.50361,21.62008,4.162-1.4507,1.81922-2.9014,3.66767-4.40183,5.46057l11.12008,9.30085a408.171,408.171,0,0,0,94.84516-234.83161l8.34444-8.29175,6.24736,6.21222a530.07543,530.07543,0,0,1-91.935,257.37006l11.87466,8.30932c5.70041-8.13677,11.13761-16.58062,16.40808-25.18536a257.14553,257.14553,0,0,1,87.72332,68.72675l11.21365-9.18677A265.40643,265.40643,0,0,0,407.337,1017l-23.1734-15.85767C377.05638,996.85162,369.721,992.9646,362.23062,989.34662Zm139.58864-165.631L425.219,747.55694a55.92188,55.92188,0,0,1,55.34585,13.846l6.923,6.92591A56.28873,56.28873,0,0,1,501.81926,823.71561Zm29.87091-86.06787H471.66173a70.70477,70.70477,0,0,0-44.90727-5.35822A56.222,56.222,0,0,1,472.583,708.64843h9.78635A56.29079,56.29079,0,0,1,531.69017,737.64774ZM428.7404,676.581l6.92591-6.923a56.33048,56.33048,0,0,1,55.416-14.33441L448.10545,698.555a70.71152,70.71152,0,0,0-34.22592,26.86129A54.87568,54.87568,0,0,1,428.7638,676.581Zm-39.938-6.923,6.923,6.923a55.02361,55.02361,0,0,1,8.33858,10.9826,68.97771,68.97771,0,0,0-5.53955,24.10029A70.72071,70.72071,0,0,0,376.41293,698.555l-42.98567-43.23136A56.30566,56.30566,0,0,1,388.82283,669.658Zm-46.71187,38.99041h9.78928a56.23715,56.23715,0,0,1,45.87538,23.63232,70.73553,70.73553,0,0,0-44.88387,5.367H292.81944a56.29721,56.29721,0,0,1,49.29445-28.99931ZM322.69034,823.71561a56.29012,56.29012,0,0,1,14.33441-55.38679l6.923-6.92591a55.41187,55.41187,0,0,1,39.30921-16.18,57.33968,57.33968,0,0,1,16.06588,2.30473Z" transform="translate(-274.5 -613)"/><path d="M1044.875,786.184A1811.5469,1811.5469,0,0,0,859.007,620.992a38.23666,38.23666,0,0,0-46.789,0A1811.51051,1811.51051,0,0,0,626.35,786.184a6.00052,6.00052,0,0,0,1.576,9.548,54.20235,54.20235,0,0,0,47.836.454V949.627a6.00091,6.00091,0,0,0,6,6h11.237v23.315a6.00092,6.00092,0,0,0,6,6h5.513v14.204c-.234-.006-.466-.03-.7-.03a25.9942,25.9942,0,0,0-14.335,4.304,14.02155,14.02155,0,0,1-15.429,0,5.99968,5.99968,0,0,0-6.62,10.008,26.022,26.022,0,0,0,28.658.007,14.0139,14.0139,0,0,1,7.726-2.32c.235,0,.467.018.7.03v19.228a25.97492,25.97492,0,0,0-15.025,4.285,14.00269,14.00269,0,0,1-15.445,0,6.00011,6.00011,0,1,0-6.611,10.015,25.98421,25.98421,0,0,0,28.666,0,14.00088,14.00088,0,0,1,15.445,0,25.98608,25.98608,0,0,0,28.666,0,14.0009,14.0009,0,0,1,15.445,0,25.98606,25.98606,0,0,0,28.666,0,13.999,13.999,0,0,1,15.445,0,25.98794,25.98794,0,0,0,28.666,0,14.00443,14.00443,0,0,1,15.446,0,25.98418,25.98418,0,0,0,28.666,0,14.0009,14.0009,0,0,1,15.445,0,25.98485,25.98485,0,0,0,28.666.001,14.00087,14.00087,0,0,1,15.445,0,25.98609,25.98609,0,0,0,28.666,0,13.99905,13.99905,0,0,1,15.445,0,25.988,25.988,0,0,0,28.666,0,6.0001,6.0001,0,1,0-6.611-10.015,14.00275,14.00275,0,0,1-15.445,0,25.9671,25.9671,0,0,0-15.033-4.284v-19.207a14.11934,14.11934,0,0,1,8.418,2.263,25.984,25.984,0,0,0,28.673,0,5.99983,5.99983,0,0,0-6.613-10.013,13.99887,13.99887,0,0,1-15.454-.005,25.9815,25.9815,0,0,0-14.324-4.297c-.235,0-.467.024-.701.03V984.942h5.521a6.00093,6.00093,0,0,0,6-6V955.627h11.24a6.00092,6.00092,0,0,0,6-6V796.688a54.1644,54.1644,0,0,0,46.752-.957,6.00047,6.00047,0,0,0,1.57693-9.547ZM739.066,955.627v17.315H704.999V955.627Zm182.174,0v23.315a6.00093,6.00093,0,0,0,6,6h5.513v15.579a25.92272,25.92272,0,0,0-22.72,2.9,14.02215,14.02215,0,0,1-15.44-.007,26.03952,26.03952,0,0,0-28.661.002,14.02193,14.02193,0,0,1-15.455-.007,26.04126,26.04126,0,0,0-28.662.012,14.03881,14.03881,0,0,1-15.45-.007,26.02452,26.02452,0,0,0-28.652.002,14.03948,14.03948,0,0,1-15.458-.002,25.90924,25.90924,0,0,0-22.709-2.891V984.942h5.521a6.00092,6.00092,0,0,0,6-6V955.627H921.24ZM718.152,1034.66q-.8055-.53252-1.641-.998V984.943h11.034v51.931A13.99912,13.99912,0,0,1,718.152,1034.66Zm191.89,0a14.00271,14.00271,0,0,1-15.445,0,25.988,25.988,0,0,0-28.666,0,14.00271,14.00271,0,0,1-15.445,0,25.988,25.988,0,0,0-28.666,0,14.00268,14.00268,0,0,1-15.445,0,25.988,25.988,0,0,0-28.666,0,14.00268,14.00268,0,0,1-15.445,0,25.96965,25.96965,0,0,0-22.718-2.901v-17.927c.217-.135.45-.254.66-.394a14.02215,14.02215,0,0,1,15.44-.007,26.04131,26.04131,0,0,0,28.662.012,14.02191,14.02191,0,0,1,15.455-.007,26.03957,26.03957,0,0,0,28.661.002,14.03948,14.03948,0,0,1,15.458-.002,26.02552,26.02552,0,0,0,28.645.007,14.03954,14.03954,0,0,1,15.458-.012,26.02365,26.02365,0,0,0,28.659.007,14.04095,14.04095,0,0,1,15.433-.019c.216.144.456.267.678.405v17.933A25.97257,25.97257,0,0,0,910.042,1034.66Zm45.745-.993q-.82952.465-1.633.993a13.9968,13.9968,0,0,1-9.401,2.214v-51.93h11.034Zm11.52-60.724H933.24V955.628h34.067ZM687.762,943.627V794.505a53.87059,53.87059,0,0,0,10.573,2.336V929.735a6.00092,6.00092,0,0,0,6,6H765.06a6.00092,6.00092,0,0,0,6-6V792.439a53.58966,53.58966,0,0,0,13.127-5.464v74.707a6.00089,6.00089,0,0,0,6,6h92.134a6.00091,6.00091,0,0,0,6-6v-74a53.594,53.594,0,0,0,11.034,4.543v137.51a6.00093,6.00093,0,0,0,6,6H966.08a6.00093,6.00093,0,0,0,6-6V796.914a53.88858,53.88858,0,0,0,12.468-2.78V943.628H687.762Zm22.573-27.703H759.06v7.811H710.335Zm48.725-12H710.335V796.875a53.87954,53.87954,0,0,0,23.059-7.959,53.94786,53.94786,0,0,0,25.666,5.362ZM796.187,791.23a54.11188,54.11188,0,0,0,39.707-5.281l1.07.535a55.9858,55.9858,0,0,0,39.357,4.07v65.128H796.187V791.23ZM911.354,915.924h48.725v7.811H911.354Zm48.725-12H911.354V794.228a53.96219,53.96219,0,0,0,26.477-5.313,53.87175,53.87175,0,0,0,22.248,7.879v107.13Zm33.053-123.212a5.999,5.999,0,0,0-6.548-.541,41.51889,41.51889,0,0,1-44.811-3.083,5.99936,5.99936,0,0,0-6.563-.361,41.48341,41.48341,0,0,1-44.857-1.85,5.99875,5.99875,0,0,0-6.4-.282,44.03332,44.03332,0,0,1-41.622,1.155l-4.035-2.017a5.9992,5.9992,0,0,0-5.97.347,41.46739,41.46739,0,0,1-44.881.616,6.002,6.002,0,0,0-6.572.181,41.48749,41.48749,0,0,1-44.857,1.85,6.00134,6.00134,0,0,0-6.563.361,41.52255,41.52255,0,0,1-44.811,3.083,5.9971,5.9971,0,0,0-6.548.541,41.50675,41.50675,0,0,1-36.805,7.398A1801.91016,1801.91016,0,0,1,819.561,630.483a26.23744,26.23744,0,0,1,32.104,0,1802.09187,1802.09187,0,0,1,178.274,157.628A41.51628,41.51628,0,0,1,993.132,780.712Z" transform="translate(-274.5 -613)"/><path d="M998.265,1065.899a14.00269,14.00269,0,0,1-15.445,0,25.99177,25.99177,0,0,0-28.666,0,14.00072,14.00072,0,0,1-15.446,0,25.98793,25.98793,0,0,0-28.666,0,14.00271,14.00271,0,0,1-15.445,0,25.988,25.988,0,0,0-28.666,0,14.00271,14.00271,0,0,1-15.445,0,25.98794,25.98794,0,0,0-28.666,0,14.00268,14.00268,0,0,1-15.445,0,25.98794,25.98794,0,0,0-28.666,0,14.00268,14.00268,0,0,1-15.445,0,25.98983,25.98983,0,0,0-28.666,0,13.999,13.999,0,0,1-15.445,0,25.98794,25.98794,0,0,0-28.666,0,14.00269,14.00269,0,0,1-15.445,0,6.00011,6.00011,0,1,0-6.611,10.015,25.98421,25.98421,0,0,0,28.666,0,14.00087,14.00087,0,0,1,15.445,0,25.98606,25.98606,0,0,0,28.666,0,14.00087,14.00087,0,0,1,15.445,0,25.98606,25.98606,0,0,0,28.666,0,13.999,13.999,0,0,1,15.445,0,25.988,25.988,0,0,0,28.666,0,14.00443,14.00443,0,0,1,15.446,0,25.98423,25.98423,0,0,0,28.666,0,14.00088,14.00088,0,0,1,15.445,0,25.98485,25.98485,0,0,0,28.666.001,14.00085,14.00085,0,0,1,15.445,0,25.98609,25.98609,0,0,0,28.666,0,13.999,13.999,0,0,1,15.445,0,25.988,25.988,0,0,0,28.666,0,6.00027,6.00027,0,0,0-6.61005-10.016Z" transform="translate(-274.5 -613)"/><path d="M733.265,1002.899a14.00269,14.00269,0,0,1-15.445,0,25.99177,25.99177,0,0,0-28.666,0,14.00072,14.00072,0,0,1-15.446,0,25.98793,25.98793,0,0,0-28.666,0,14.00271,14.00271,0,0,1-15.445,0,25.988,25.988,0,0,0-28.666,0,14.00271,14.00271,0,0,1-15.445,0,25.98794,25.98794,0,0,0-28.666,0,14.00268,14.00268,0,0,1-15.445,0,25.98794,25.98794,0,0,0-28.666,0,14.00268,14.00268,0,0,1-15.445,0,25.98983,25.98983,0,0,0-28.666,0,13.999,13.999,0,0,1-15.445,0,25.98794,25.98794,0,0,0-28.666,0,14.00269,14.00269,0,0,1-15.445,0,6.00011,6.00011,0,1,0-6.611,10.015,25.98421,25.98421,0,0,0,28.666,0,14.00087,14.00087,0,0,1,15.445,0,25.98606,25.98606,0,0,0,28.666,0,14.00087,14.00087,0,0,1,15.445,0,25.98606,25.98606,0,0,0,28.666,0,13.999,13.999,0,0,1,15.445,0,25.988,25.988,0,0,0,28.666,0,14.00443,14.00443,0,0,1,15.446,0,25.98423,25.98423,0,0,0,28.666,0,14.00088,14.00088,0,0,1,15.445,0,25.98485,25.98485,0,0,0,28.666.001,14.00085,14.00085,0,0,1,15.445,0,25.98609,25.98609,0,0,0,28.666,0,13.999,13.999,0,0,1,15.445,0,25.988,25.988,0,0,0,28.666,0,6.00027,6.00027,0,0,0-6.61005-10.016Z" transform="translate(-274.5 -613)"/><path d="M779.265,1065.899a14.00269,14.00269,0,0,1-15.445,0,25.99177,25.99177,0,0,0-28.666,0,14.00072,14.00072,0,0,1-15.446,0,25.98793,25.98793,0,0,0-28.666,0,14.00271,14.00271,0,0,1-15.445,0,25.988,25.988,0,0,0-28.666,0,14.00271,14.00271,0,0,1-15.445,0,25.98794,25.98794,0,0,0-28.666,0,14.00268,14.00268,0,0,1-15.445,0,25.98794,25.98794,0,0,0-28.666,0,14.00268,14.00268,0,0,1-15.445,0,25.98983,25.98983,0,0,0-28.666,0,13.999,13.999,0,0,1-15.445,0,25.98794,25.98794,0,0,0-28.666,0,14.00269,14.00269,0,0,1-15.445,0,6.00011,6.00011,0,1,0-6.611,10.015,25.98421,25.98421,0,0,0,28.666,0,14.00087,14.00087,0,0,1,15.445,0,25.98606,25.98606,0,0,0,28.666,0,14.00087,14.00087,0,0,1,15.445,0,25.98606,25.98606,0,0,0,28.666,0,13.999,13.999,0,0,1,15.445,0,25.988,25.988,0,0,0,28.666,0,14.00443,14.00443,0,0,1,15.446,0,25.98423,25.98423,0,0,0,28.666,0,14.00088,14.00088,0,0,1,15.445,0,25.98485,25.98485,0,0,0,28.666.001,14.00085,14.00085,0,0,1,15.445,0,25.98609,25.98609,0,0,0,28.666,0,13.999,13.999,0,0,1,15.445,0,25.988,25.988,0,0,0,28.666,0,6.00027,6.00027,0,0,0-6.61005-10.016Z" transform="translate(-274.5 -613)"/><path d="M778.265,1034.899a14.00269,14.00269,0,0,1-15.445,0,25.99177,25.99177,0,0,0-28.666,0,14.00072,14.00072,0,0,1-15.446,0,25.98793,25.98793,0,0,0-28.666,0,14.00271,14.00271,0,0,1-15.445,0,25.988,25.988,0,0,0-28.666,0,14.00271,14.00271,0,0,1-15.445,0,25.98794,25.98794,0,0,0-28.666,0,14.00268,14.00268,0,0,1-15.445,0,25.98794,25.98794,0,0,0-28.666,0,14.00268,14.00268,0,0,1-15.445,0,25.98983,25.98983,0,0,0-28.666,0,13.999,13.999,0,0,1-15.445,0,25.98794,25.98794,0,0,0-28.666,0,14.00269,14.00269,0,0,1-15.445,0,6.00011,6.00011,0,1,0-6.611,10.015,25.98421,25.98421,0,0,0,28.666,0,14.00087,14.00087,0,0,1,15.445,0,25.98606,25.98606,0,0,0,28.666,0,14.00087,14.00087,0,0,1,15.445,0,25.98606,25.98606,0,0,0,28.666,0,13.999,13.999,0,0,1,15.445,0,25.988,25.988,0,0,0,28.666,0,14.00443,14.00443,0,0,1,15.446,0,25.98423,25.98423,0,0,0,28.666,0,14.00088,14.00088,0,0,1,15.445,0,25.98485,25.98485,0,0,0,28.666.001,14.00085,14.00085,0,0,1,15.445,0,25.98609,25.98609,0,0,0,28.666,0,13.999,13.999,0,0,1,15.445,0,25.988,25.988,0,0,0,28.666,0,6.00027,6.00027,0,0,0-6.61005-10.016Z" transform="translate(-274.5 -613)"/></svg>