<svg height="512pt" viewBox="0 -64 512 512" width="512pt" xmlns="http://www.w3.org/2000/svg"><path d="m447.921875 234.253906h-315.148437l-47.480469-47.394531c-11.714844-11.691406-30.710938-11.691406-42.425781 0-11.714844 11.695313-11.714844 30.65625 0 42.351563l65.054687 64.933593h340c16.566406 0 30-13.40625 30-29.945312 0-16.539063-13.433594-29.945313-30-29.945313zm0 0" fill="#c8e0ff"/><g fill="#909090"><path d="m482.035156 334.074219h-452.070312c-11.027344 0-19.964844-8.9375-19.964844-19.964844s8.9375-19.964844 19.964844-19.964844h452.070312c11.027344 0 19.964844 8.9375 19.964844 19.964844s-8.9375 19.964844-19.964844 19.964844zm0 0"/><path d="m76 374h-40l20-39.925781h40zm0 0"/><path d="m476 374h-40l-20-39.925781h40zm0 0"/></g><path d="m136.851562 26.675781c-11.960937 6.890625-4.308593 45.796875 16.902344 82.464844l-46.183594 26.617187c-22.089843-38.191406-8.980468-87.035156 29.28125-109.082031zm0 0" fill="#ffed8a"/><path d="m199.949219 82.519531-46.195313 26.621094c-21.210937-36.671875-28.863281-75.574219-16.902344-82.464844 11.960938-6.894531 41.886719 19.171875 63.097657 55.84375zm0 0" fill="#fff"/><path d="m246.132812 55.902344-46.183593 26.617187c-21.210938-36.671875-51.136719-62.738281-63.097657-55.84375 38.261719-22.050781 87.191407-8.964843 109.28125 29.226563zm0 0" fill="#ffed8a"/><path d="m512 314.109375c0-16.347656-13.160156-29.679687-29.441406-29.949219 3.410156-5.871094 5.363281-12.691406 5.363281-19.960937 0-22.027344-17.941406-39.949219-40-39.949219h-186.09375l-37.027344-64.019531c-2.769531-4.78125-8.878906-6.421875-13.671875-3.652344-4.777344 2.761719-6.410156 8.882813-3.648437 13.660156l31.238281 54.011719h-101.808594l-44.550781-44.46875c-15.589844-15.5625-40.96875-15.5625-56.558594 0-7.5625 7.546875-11.722656 17.578125-11.722656 28.257812 0 10.671876 4.160156 20.699219 11.722656 28.25l47.960938 47.859376h-53.800781c-16.519532 0-29.960938 13.441406-29.960938 29.960937s13.441406 29.960937 29.960938 29.960937h9.847656l-12.75 25.449219c-1.546875 3.101563-1.386719 6.78125.429687 9.730469 1.820313 2.949219 5.042969 4.75 8.511719 4.75h40c3.789062 0 7.25-2.140625 8.941406-5.519531l17.238282-34.410157h307.640624l17.238282 34.410157c1.691406 3.378906 5.152344 5.519531 8.941406 5.519531h40c3.46875 0 6.691406-1.800781 8.511719-4.75 1.816406-2.949219 1.976562-6.628906.429687-9.730469l-12.75-25.449219h9.847656c16.519532 0 29.960938-13.441406 29.960938-29.960937zm-462.070312-91.980469c-3.769532-3.757812-5.851563-8.769531-5.851563-14.089844 0-5.328124 2.082031-10.328124 5.851563-14.097656 7.800781-7.792968 20.5-7.792968 28.300781 0l47.480469 47.386719c1.867187 1.871094 4.410156 2.921875 7.058593 2.921875h315.152344c11.027344 0 20 8.949219 20 19.949219s-8.972656 19.949219-20 19.949219h-335.863281zm19.890624 141.871094h-17.628906l9.988282-19.929688h17.628906zm372.359376 0-9.988282-19.929688h17.628906l9.988282 19.929688zm-412.21875-39.929688c-5.492188 0-9.960938-4.46875-9.960938-9.960937 0-5.488281 4.46875-9.960937 9.960938-9.960937h452.078124c5.492188 0 9.960938 4.472656 9.960938 9.960937 0 5.492187-4.46875 9.960937-9.960938 9.960937zm0 0"/><path d="m196.160156 140.65625c-5.523437 0-10.003906-4.476562-10.003906-10s4.472656-10 9.996094-10h.007812c5.523438 0 10 4.476562 10 10s-4.476562 10-10 10zm0 0"/><path d="m254.789062 50.898438c-24.109374-41.6875-76.890624-56.796876-119.277343-34.886719-1.070313 1.558593-1.304688.636719-3.652344 2 1.214844-.675781 2.429687-1.339844 3.652344-2 4.90625-6.457031.078125-16.011719-7.980469-16.011719h-.011719c-13.59375 0-12.335937 21.707031 1.171875 19.929688-19.03125 12.003906-32.960937 30.953124-38.78125 52.679687-3.246094 12.125-3.96875 24.882813-1.996094 37.285156 1.5 9.445313 5.042969 27.488281 13.300782 33.589844 7.371094 5.441406 15.152344-1.257813 21.570312-4.957031 10.796875-6.222656 21.589844-12.441406 32.386719-18.664063 16.640625-9.59375 33.285156-19.183593 49.929687-28.777343 9.640626-5.554688 58.367188-25.242188 49.6875-40.1875-24.109374-41.6875 1.332032 2.292968 0 0zm-142.949218 70.863281c-9.257813-22.988281-5.289063-49.941407 10.121094-69.339844 0 17.417969 10.363281 37.9375 18.308593 52.949219zm45.789062-26.390625h-.007812c-6.792969-13.300782-22.984375-43.566406-15.640625-59.800782 18.554687 4.683594 34.277343 28.402344 44.089843 43.410157zm45.769532-26.382813c-10.363282-15.527343-21.867188-30.730469-36.726563-42.269531 24.367187-3.546875 49.488281 5.992188 65.167969 25.882812zm0 0"/></svg>