<svg id="f027abfb-4d07-4b92-8c44-2791195ccbd5" data-name="svg4709" xmlns="http://www.w3.org/2000/svg" viewBox="0 0 161.42499 186.89745"><defs><style>.\32 57aeb11-8178-4ced-8aaf-02d3b8961be2,.\36 2c9b4f7-c5bf-4b9c-b6c5-23d41ba23117,.a261b76c-9c26-4a40-b270-0a096456976f{fill:#231f20;}.\36 2c9b4f7-c5bf-4b9c-b6c5-23d41ba23117,.\37 2a62c3c-fc2e-447f-8654-3febdb4fe959,.a261b76c-9c26-4a40-b270-0a096456976f,.b4b5857a-8cab-448e-9531-6a6834a79ae4{stroke:#231f20;}.\34 bfaf4a0-fab1-4d86-9c71-62d2557136e3,.\36 2c9b4f7-c5bf-4b9c-b6c5-23d41ba23117,.\37 2a62c3c-fc2e-447f-8654-3febdb4fe959,.a261b76c-9c26-4a40-b270-0a096456976f,.b4b5857a-8cab-448e-9531-6a6834a79ae4{stroke-miterlimit:22.92558;}.a261b76c-9c26-4a40-b270-0a096456976f{stroke-width:0.36px;}.\37 2a62c3c-fc2e-447f-8654-3febdb4fe959{fill:#fff004;stroke-width:0.4031px;}.b4b5857a-8cab-448e-9531-6a6834a79ae4{fill:none;stroke-width:0.19999px;}.\34 bfaf4a0-fab1-4d86-9c71-62d2557136e3,.\35 d75cc51-24a4-414b-9cf9-9c8e3800862e{fill:#fff;}.\36 2c9b4f7-c5bf-4b9c-b6c5-23d41ba23117{stroke-width:0.2319px;}.\31 a11c8a3-6735-41cd-925f-df971de0b3e5{fill:#00b1f7;}.\34 bfaf4a0-fab1-4d86-9c71-62d2557136e3{stroke:#fff;stroke-width:0.2378px;}</style></defs><title>Colourised</title><g id="d9d27a92-f375-48c7-920d-eff866650865" data-name="g825"><path id="d4d742ca-e9db-4fb4-8ab7-4b61b341411d" data-name="path827" class="a261b76c-9c26-4a40-b270-0a096456976f" d="M27.10854,77.41776c-.20237,23.84886-1.01187,43.16165,0,65.42948,6.81356,52.85208,46.95092,92.30234,81.28717,102.33646,47.22105-20.13721,73.125-56.83813,79.06135-100.89286.742-21.6495-.60714-40.20631-1.07963-67.42278-47.693-26.11685-114.61126-22.54283-159.2689.54967Z" transform="translate(-26.43038 -58.47709)"/></g><g id="357b6d81-8834-4ea9-8302-6fbdedc86318" data-name="g829"><path id="8d017c1e-77d6-4c46-9b57-1f352f140930" data-name="path831" class="72a62c3c-fc2e-447f-8654-3febdb4fe959" d="M30.47229,99.5099c-.19451,20.17359-.065,30.58013.90707,49.41631,6.54483,44.70768,43.73978,83.48514,76.72317,91.97316,45.36-17.03418,69.78973-57.49761,75.492-94.76349.713-18.31318.32409-24.06875-.12955-47.09107-45.81362-22.09209-110.09523-19.069-152.9927.46509Z" transform="translate(-26.43038 -58.47709)"/></g><path id="395fb203-6862-4b8c-a97e-2b68029e1fbe" data-name="path833" class="b4b5857a-8cab-448e-9531-6a6834a79ae4" d="M29.99045,98.34152s82.48759-37.952,153.84218.506" transform="translate(-26.43038 -58.47709)"/><path id="c1b40271-f768-44ab-a746-82580cd95d76" data-name="path835" class="5d75cc51-24a4-414b-9cf9-9c8e3800862e" d="M50.23575,86.70721l-2.66031-9.9277,7.36021-1.97179.4504,1.68039L50.03,77.923l.5899,2.20051,4.98359-1.3351.4479,1.671-4.9839,1.3354.7243,2.702,5.5454-1.48588.4484,1.67347Zm7.8146-7.40379a5.60669,5.60669,0,0,1,.47-4.13151,5.37312,5.37312,0,0,1,7.1685-1.50625,6.312,6.312,0,0,1,1.6095,7.57187,4.531,4.531,0,0,1-3.1235,2.1317,5.68749,5.68749,0,0,1-2.8641-.00852,4.3073,4.3073,0,0,1-2.0489-1.40911,6.003,6.003,0,0,1-1.21149-2.649Zm2.07829-.51251a3.77229,3.77229,0,0,0,1.3629,2.4404,2.777,2.777,0,0,0,3.9532-.83034,3.81964,3.81964,0,0,0,.2387-2.8128,3.94871,3.94871,0,0,0-1.28489-2.40808,2.86957,2.86957,0,0,0-4.0745.8805,3.98441,3.98441,0,0,0-.1954,2.73032Zm1.33371.61169-.3617-1.70163,3.2633-.69339.3617,1.70137ZM70.449,81.6423l-1.6078-10.1512,1.995-.3157,5.2291,6.1202-1.0738-6.77839,1.9049-.30169,1.6078,10.1512-2.0585.326-5.14-5.972,1.0485,6.62Zm10.1455-1.69259-1.4304-10.17784,2.0546-.2888,1.4306,10.1778Zm3.9404-.54992L83.46065,69.1784l2.0634-.21688.477,4.53831,3.6927-4.97646,2.77509-.2917-3.4299,4.386,4.7137,5.81332-2.6702.28063-3.3128-4.50253-1.4959,1.885.3249,3.089Zm10.3522-1.2351-.538-10.26361,2.0746-.10886.2118,4.03847,4.06-.21259-.21169-4.03847,2.0721-.10887.538,10.26387-2.0721.10856-.235-4.48809-4.0603.2129.235,4.48782Zm18.1678-11.05562h2.0747v.91637a4.14925,4.14925,0,0,1,4.25019,4.36222,4.45306,4.45306,0,0,1-1.1225,3.0487,4.27415,4.27415,0,0,1-3.12769,1.38809v1.23479h-2.0747V76.82445a4.28436,4.28436,0,0,1-3.13259-1.39038,4.46471,4.46471,0,0,1-1.1225-3.04641,4.66738,4.66738,0,0,1,.4881-2.1679,3.93288,3.93288,0,0,1,1.45019-1.55058,4.4934,4.4934,0,0,1,2.3168-.64374Zm0,2.6776a2.2292,2.2292,0,0,0-1.5415.77778,2.73,2.73,0,0,0-.5743,1.82316,2.86362,2.86362,0,0,0,.553,1.79488,2.11458,2.11458,0,0,0,1.56279.8136Zm2.0747,5.20946a2.26267,2.26267,0,0,0,1.5363-.78011,2.721,2.721,0,0,0,.57429-1.82841,2.86814,2.86814,0,0,0-.55049-1.792,2.06615,2.06615,0,0,0-1.5601-.809Zm5.8963,2.7221.71721-10.25292,3.3208.23214a12.03079,12.03079,0,0,1,2.4502.32738,2.69122,2.69122,0,0,1,1.4077,1.10581,3.19,3.19,0,0,1,.4547,2.03732,3.3365,3.3365,0,0,1-.4547,1.5636,2.82663,2.82663,0,0,1-.94191.95132,3.01392,3.01392,0,0,1-1.1058.4093,11.82916,11.82916,0,0,1-2.1592-.002l-1.3487-.09412-.2704,3.8671-2.0699-.14455Zm2.6654-8.3727-.20322,2.90748,1.13161.07937a5.37878,5.37878,0,0,0,1.6489-.04563,1.36886,1.36886,0,0,0,.682-.45831,1.391,1.391,0,0,0,.29-.781,1.33235,1.33235,0,0,0-.2651-.94682,1.42754,1.42754,0,0,0-.799-.5116,9.86827,9.86827,0,0,0-1.4848-.17349Zm7.1073,4.05607a6.53807,6.53807,0,0,1,.78689-2.56029,4.89174,4.89174,0,0,1,1.122-1.28237,4.02732,4.02732,0,0,1,1.43091-.75481,5.61738,5.61738,0,0,1,2.249-.13379,4.82359,4.82359,0,0,1,3.43621,1.8419,6.2938,6.2938,0,0,1-.9425,7.75591,4.79308,4.79308,0,0,1-3.76051.95361,4.84466,4.84466,0,0,1-3.4495-1.83147,5.31056,5.31056,0,0,1-.87249-3.98856Zm2.1294.19161a3.85759,3.85759,0,0,0,.4782,2.725,2.62756,2.62756,0,0,0,1.9233,1.14258,2.60124,2.60124,0,0,0,2.1305-.64011,3.93046,3.93046,0,0,0,1.1152-2.56331,3.881,3.881,0,0,0-.44561-2.71138,2.87272,2.87272,0,0,0-4.0989-.49118,3.88924,3.88924,0,0,0-1.1027,2.5384Zm10.91849,6.84033.8994-4.23181-2.4446-6.60417,2.3809.506,1.521,4.47991,3.1626-3.48439,2.3386.49719-4.93649,5.0496-.8966,4.218Zm6.78731,1.4848,2.4865-9.9723,3.2301.80533a12.00945,12.00945,0,0,1,2.35619.74777,2.68851,2.68851,0,0,1,1.19421,1.33341,3.19,3.19,0,0,1,.0941,2.08519,3.33973,3.33973,0,0,1-.71909,1.46071,2.829,2.829,0,0,1-1.0931.77328,3.00962,3.00962,0,0,1-1.1602.21116,11.90461,11.90461,0,0,1-2.12571-.37708l-1.3119-.32708-.938,3.76156Zm4.0788-7.7823-.705,2.8279,1.10041.2744a5.36714,5.36714,0,0,0,1.6319.24152,1.36738,1.36738,0,0,0,.7512-.33309,1.38816,1.38816,0,0,0,.4209-.71861,1.33165,1.33165,0,0,0-.0961-.97847,1.4313,1.4313,0,0,0-.6982-.64262,9.83763,9.83763,0,0,0-1.432-.42859ZM167.708,86.97785l-2.1606-.66009-.17521-2.496-3.9293-1.20132-1.4931,1.986-2.10549-.64383,6.8337-8.65809,2.0988.64149Zm-2.46621-5.0051-.2395-4.062-2.4426,3.24192Z" transform="translate(-26.43038 -58.47709)"/><path id="e57e3597-84bf-4456-9ee3-0cdba5ba24a1" data-name="path839" class="257aeb11-8178-4ced-8aaf-02d3b8961be2" d="M47.04115,178.89444a.4677.4677,0,0,0-.1658.04706,1.41326,1.41326,0,0,0-.19449.10744.52092.52092,0,0,0-.12671.10432q.0987.185.227.40628c.0851.14767.16841.2965.2543.44581s.165.28971.2342.41991q.2751.52332.4422.86852c.11191.23106.19871.40589.26078.52665a.38458.38458,0,0,0,.1122-.02552c.04929-.017.10088-.03858.15681-.06375a1.67571,1.67571,0,0,0,.14962-.07743.29426.29426,0,0,0,.08418-.06211c-.03229-.09775-.06381-.1936-.09269-.28889-.03-.09269-.05811-.19048-.08612-.29247a.40836.40836,0,0,1,.00312-.29625.38473.38473,0,0,1,.1808-.16553,1.62,1.62,0,0,1,.3895-.10744c.18941-.03572.4297-.07681.7248-.121a.19137.19137,0,0,1,.09811.017.14213.14213,0,0,1,.06828.05048c.0292.04731.06151.10376.09839.16894.03569.0632.0796.14174.12929.2347.04929.093.1105.208.18139.34122.05131.09667.10769.199.16611.30866.06089.11055.11849.21427.1726.31583.05389.10147.097.18677.13039.258a.158.158,0,0,1,.015.0853.18315.18315,0,0,1-.02126.07431c-.05159.06635-.1154.14567-.19452.23754-.0782.08954-.16069.18314-.25.27613-.09009.09585-.1743.18167-.25631.26a1.99124,1.99124,0,0,1-.21062.17915.18323.18323,0,0,1-.0881.03824.29779.29779,0,0,1-.1531-.02838.8391.8391,0,0,1-.19111-.16756c-.07109-.08106-.14819-.17691-.23131-.28426a.24859.24859,0,0,0-.10028.02837,1.52876,1.52876,0,0,0-.1463.07544c-.05242.03235-.1012.06263-.14432.09187a.67272.67272,0,0,0-.0907.07431c.06749.127.14629.267.2342.41981.087.15113.1845.32691.29479.52224.11021.19473.23412.41947.36991.67493.159.299.2888.551.3923.75831.1029.20554.1885.3744.25339.50909.06519.13461.11939.24464.165.3308a.23455.23455,0,0,0,.1069-.01133,1.348,1.348,0,0,0,.16129-.05554,1.51844,1.51844,0,0,0,.15468-.0711.31116.31116,0,0,0,.091-.07c-.0652-.18-.11361-.33184-.146-.45814a1.102,1.102,0,0,1-.03909-.33469.75027.75027,0,0,1,.07739-.28608,1.87865,1.87865,0,0,1,.2035-.3186q.13486-.17556.3416-.42233c.14629-.17742.3203-.38469.525-.61938q.30316-.353.6542-.75123c.2342-.26531.4706-.534.7081-.80131.23728-.267.4641-.52189.6778-.76372.21509-.2401.4022-.45472.5672-.642.0502-.057.10831-.11821.176-.18681s.1381-.13633.20718-.20549q.10545-.10161.19341-.18738a3.07876,3.07876,0,0,1-.16271-.26475c-.05451-.09468-.10831-.19589-.165-.30238-.05389-.10148-.106-.19957-.1539-.29772-.0496-.09723-.095-.19446-.13331-.29113a2.58016,2.58016,0,0,1-.3175.08845c-.12841.03119-.2605.05614-.3951.07993-.13581.02267-.2526.03884-.356.04849-.17751.02552-.3977.05528-.6622.09183-.26561.03486-.561.07482-.8864.11535q-.4899.06249-1.0287.12444c-.3594.04165-.7217.08223-1.08821.11908-.36569.03828-.71919.07-1.0639.09922a3.23461,3.23461,0,0,1-.4858.01133.942.942,0,0,1-.356-.08222,1.08049,1.08049,0,0,1-.3062-.22509,3.73911,3.73911,0,0,1-.3441-.4068Zm5.7787.93431q-.13607.15987-.3124.35472c-.11512.13041-.23582.26194-.35741.396-.12279.1324-.23929.25965-.3484.37609-.10859.11821-.203.21826-.2804.30078-.07761.08249-.13011.13863-.157.16584a.189.189,0,0,1-.032.00847.037.037,0,0,1-.0349-.01133c-.02381-.03287-.06491-.09779-.1222-.19728-.0589-.09866-.1326-.2333-.22161-.40048-.0783-.1471-.14289-.26873-.1942-.36942-.053-.09979-.0919-.18085-.11912-.24434a.04906.04906,0,0,1,.01928-.05359.11735.11735,0,0,1,.05558-.02552c.14851-.02267.31151-.05048.4872-.07907.17751-.02919.3583-.06008.5457-.0907.1851-.03119.3685-.06151.5488-.08984.17889-.03032.347-.0567.5015-.08023.00794.002.01134.00852.01417.017l.00709.02266Zm3.4016,3.97c.0754.17916.14139.34412.199.49629.05669.15026.09969.27976.12841.38694a.41432.41432,0,0,1-.01474.224.5013.5013,0,0,1-.11251.178.678.678,0,0,1-.1599.12673c-.12019.07111-.2806.16159-.4785.2718-.1978.10995-.4212.2302-.6653.36368q-.3681.19774-.7622.40822-.39284.20711-.7696.404c-.24939.13235-.4793.24948-.686.35632-.2086.108-.38069.19446-.515.26159a.99394.99394,0,0,1-.4777.13634.60388.60388,0,0,1-.38519-.1789,1.78312,1.78312,0,0,1-.13981-.13746c-.05179-.05528-.10681-.1154-.1612-.17829-.05559-.06436-.108-.12387-.15852-.18028a.23822.23822,0,0,0-.1032.03063,1.09516,1.09516,0,0,0-.14539.08529,1.12168,1.12168,0,0,0-.13522.10147.33272.33272,0,0,0-.07849.08279c.0805.12388.1669.25.25928.38184s.18431.26618.27752.3994c.0947.135.18459.26618.2679.39456q.387.60117.6217.98877c.15639.25882.27071.445.3441.56151a.25151.25151,0,0,0,.1139-.02266.98113.98113,0,0,0,.1582-.07284,1.03,1.03,0,0,0,.1417-.09438.16011.16011,0,0,0,.06749-.08279c-.06749-.14568-.12639-.27864-.1752-.39974-.04731-.12215-.089-.23894-.12161-.35261a.71333.71333,0,0,1-.03059-.29957.37566.37566,0,0,1,.10661-.20156,1.24033,1.24033,0,0,1,.2251-.17379q.258-.16713.623-.39058c.24321-.14879.508-.30727.7915-.47544.282-.167.5708-.33391.8611-.502q.4329-.25044.8306-.47112a.06317.06317,0,0,1,.04308.01981c.01361.01419.0207.02552.02013.0346q-.2976.45378-.6236.9482-.327.49335-.6608.98618c-.2205.32829-.4351.64092-.6418.94171-.20891.30017-.4008.57059-.5785.81376-.176.2424-.3297.44482-.4592.60408a.47779.47779,0,0,0,.04668.09974q.04209.07565.10151.167c.038.06211.07509.11566.11061.16324a.29013.29013,0,0,0,.0728.08053c.15681-.03287.3648-.07456.6234-.11938.25908-.04731.549-.09636.873-.14913q.486-.07955,1.0123-.16411c.35209-.05553.6973-.11055,1.0395-.16384s.6601-.10459.9564-.15113c.2953-.04792.5507-.09039.763-.1256a.03968.03968,0,0,1,.02381.01981.04581.04581,0,0,1,.00794.02924c-.2891.18088-.576.36479-.866.55078q-.43275.27769-.8438.54586c-.27471.178-.5332.34594-.7784.50286q-.36613.23772-.665.42042a2.135,2.135,0,0,1-.2948.15736.38973.38973,0,0,1-.19048.03036.37126.37126,0,0,1-.15341-.07431,1.93,1.93,0,0,1-.21-.197c-.0743-.07941-.16129-.1712-.262-.27691a.32045.32045,0,0,0-.10769.038,1.25811,1.25811,0,0,0-.14771.08218,1.19123,1.19123,0,0,0-.1372.0981.23938.23938,0,0,0-.07.08192q.17055.26275.3303.491c.1048.15113.2092.30468.3163.45892.106.15251.2177.31748.3334.49577q.30181.46466.50911.8013c.138.22311.25679.413.3532.57216.09629.15874.1794.29421.2537.40814a.233.233,0,0,0,.11219-.01419.98506.98506,0,0,0,.1531-.06972,1.24444,1.24444,0,0,0,.14139-.09187.29218.29218,0,0,0,.08051-.08677c-.0612-.14715-.11651-.285-.1658-.41021-.049-.12812-.0864-.23158-.1122-.3129a.46781.46781,0,0,1,.02971-.38011.858.858,0,0,1,.26822-.2789c.10769-.08391.254-.19247.4379-.3276q.27735-.20073.6268-.44819c.23179-.16669.4736-.33529.7245-.5116.25-.17379.4938-.3436.733-.50571.23669-.16272.4536-.31073.6489-.442.195-.12872.3543-.23469.4759-.31116a1.12789,1.12789,0,0,1,.20809-.11229.43354.43354,0,0,1,.20469-.03261.44029.44029,0,0,1,.21231.095,2.06871,2.06871,0,0,1,.2384.22648c.09119.09835.19669.20778.3155.3314a.18547.18547,0,0,0,.1131-.02266.99566.99566,0,0,0,.15761-.091,1.45809,1.45809,0,0,0,.1377-.1077c.0383-.03624.0559-.0615.0542-.07855-.06151-.09463-.12589-.18988-.19219-.28858-.06491-.097-.13921-.20407-.218-.32172-.0802-.11678-.1732-.2526-.27752-.40649-.10258-.15476-.22478-.33556-.3631-.54482-.13688-.20753-.2982-.45243-.47959-.73167a1.63459,1.63459,0,0,1-.3317.12188c-.12331.03175-.254.06237-.394.08928-.146.02837-.3212.05753-.5261.09014-.20469.03261-.4249.066-.6616.09862-.23729.03572-.4765.06773-.7217.10121-.24381.03287-.4799.06289-.7059.091-.2259.02838-.4303.051-.6131.07172-.184.01981-.3328.036-.4482.04446a.07568.07568,0,0,1-.04051-.02266.06156.06156,0,0,1-.00992-.05329c.07481-.13071.16691-.2911.2795-.4802.1105-.18824.2361-.39533.3722-.61852.136-.22284.2789-.45269.4246-.68877.14681-.23443.2897-.46428.4314-.68885s.27439-.43166.3969-.62276a3.32107,3.32107,0,0,1,.23241-.33815,2.10013,2.10013,0,0,1,.2945-.30563q-.17641-.27171-.3798-.59551-.20159-.32064-.4136-.65788-.21255-.338-.4181-.66446-.20325-.32362-.3861-.6052a.22048.22048,0,0,0-.09009.02552c-.04739.02267-.09811.04568-.1559.07621a1.46053,1.46053,0,0,0-.15449.089.34393.34393,0,0,0-.087.07Zm2.1183,13.91518a.27549.27549,0,0,0-.11251.0391,1.02633,1.02633,0,0,0-.1381.091.85243.85243,0,0,0-.11849.10944.20075.20075,0,0,0-.05641.09273c.1709.21886.3413.43046.50971.63686.1684.20606.3248.39975.47169.57882q.22111.26834.38241.47371c.07421.095.1601.208.2599.33876.09981.131.20152.26791.30871.40761q.15779.21177.2985.40079c.09411.12327.17119.2282.23329.311.06211.08253.09831.1321.11.14715a.1661.1661,0,0,0,.10741-.01981.83865.83865,0,0,0,.15219-.08478.86969.86969,0,0,0,.1372-.10718.18932.18932,0,0,0,.0661-.093q-.108-.20373-.2118-.37389a1.71039,1.71039,0,0,1-.14851-.292.68061.68061,0,0,1-.05131-.31462.42548.42548,0,0,1,.10369-.222,2.08736,2.08736,0,0,1,.22031-.21574c.11421-.09923.22672-.19161.3339-.27553.1097-.0833.21972-.1692.3311-.25372.11-.08616.2279-.178.3506-.2789a9.56162,9.56162,0,0,1,.8425-.59473,3.95239,3.95239,0,0,1,.75819-.379,3.30084,3.30084,0,0,1,1.02791-.19559,1.74734,1.74734,0,0,1,.807.18114,1.844,1.844,0,0,1,.6225.5289,1.95177,1.95177,0,0,1,.22482.35632,2.07458,2.07458,0,0,1,.1434.37648.10113.10113,0,0,0,.05471.01981.10756.10756,0,0,0,.07631-.01981,1.56693,1.56693,0,0,0,.18709-.14629,2.44556,2.44556,0,0,0,.2046-.19844,1.83542,1.83542,0,0,0,.1622-.19983.31542.31542,0,0,0,.0643-.157,1.044,1.044,0,0,0-.08471-.36653,1.41156,1.41156,0,0,0-.18368-.31289,2.24723,2.24723,0,0,0-.6106-.548,2.15846,2.15846,0,0,0-.7053-.26558,2.853,2.853,0,0,0-.7636-.03486,4.2964,4.2964,0,0,0-.7829.14516,6.04253,6.04253,0,0,0-.76771.27414c-.023.01133-.0394.01133-.05071.00285-.00992-.00847-.00907-.03659.00312-.08278.14771-.14681.2914-.29525.4283-.44387a3.962,3.962,0,0,0,.3713-.46973,2.27588,2.27588,0,0,0,.26988-.53426,1.6981,1.6981,0,0,0,.068-.97346,2.44475,2.44475,0,0,0-.487-.9437,2.79931,2.79931,0,0,0-.6247-.57847,3.40937,3.40937,0,0,0-.735-.37821,2.58968,2.58968,0,0,0-.705-.15623.32183.32183,0,0,0-.13522.04481.99929.99929,0,0,0-.15048.10571.83882.83882,0,0,0-.1205.12561.15487.15487,0,0,0-.04139.10286,2.82924,2.82924,0,0,1,.57.32206,2.45483,2.45483,0,0,1,.4726.45243,1.64481,1.64481,0,0,1,.3682.86619,1.68115,1.68115,0,0,1-.18281.88868,3.83306,3.83306,0,0,1-.6611.917,9.46748,9.46748,0,0,1-1.0661.95192c-.11029.08616-.2052.16012-.2877.22249-.08279.06212-.16069.12077-.2313.17345-.07339.05242-.148.10571-.22732.163-.078.05588-.169.1199-.27051.19187a1.61943,1.61943,0,0,1-.24551.15536.40072.40072,0,0,1-.23749.04447.52908.52908,0,0,1-.2696-.13694c-.04308-.03659-.1012-.08616-.1726-.1494-.07-.06176-.1457-.13382-.22759-.21064-.0819-.07708-.1624-.155-.23871-.23383Zm8.9396,2.00185a2.61569,2.61569,0,0,1,.24009.38659,2.80328,2.80328,0,0,1,.14519.33279.49837.49837,0,0,1,.02971.28738.76269.76269,0,0,1-.1103.26393,1.15508,1.15508,0,0,1-.1788.20779c-.1522.13694-.3232.29057-.5122.4584-.19021.16894-.3892.343-.5967.52466-.2075.1814-.4136.36168-.6208.54049-.2058.17777-.4031.345-.5888.50209-.1859.15675-.3518.29585-.4977.41436-.1472.11964-.2645.20978-.3518.273a1.00349,1.00349,0,0,1-.3762.197.53128.53128,0,0,1-.3801-.04135c-.08051-.04368-.1539-.08815-.2183-.13071-.06689-.04308-.12948-.087-.1936-.13521-.0612-.04766-.1275-.09862-.20041-.15675a.30242.30242,0,0,0-.0864.04706c-.0411.02889-.0862.06462-.13439.10545a1.33462,1.33462,0,0,0-.1273.12215.25493.25493,0,0,0-.0618.09438c.11141.12362.23471.25485.3674.39317.1321.13858.263.27838.3954.4167s.25319.2667.362.38772q.26323.296.5216.60468.258.30831.521.6046a.35218.35218,0,0,0,.1182-.05191,1.19983,1.19983,0,0,0,.1395-.09974,1.104,1.104,0,0,0,.117-.11341.171.171,0,0,0,.05049-.08676c-.08478-.1372-.15871-.25373-.22-.35321-.0598-.0981-.1148-.19049-.1616-.27665a.75573.75573,0,0,1-.08949-.28261.56814.56814,0,0,1,.06151-.29767,1.22477,1.22477,0,0,1,.2548-.335c.07291-.07085.17861-.17379.3212-.30727q.2118-.19815.4943-.46056c.18689-.17319.3864-.35814.5984-.55174s.4258-.38548.6361-.57795c.21379-.19222.417-.37241.60751-.54145a.04906.04906,0,0,1,.03149-.00571c.01615.00087.02353.017.02324.04879-.0428.2699-.09439.58193-.1576.935-.06179.352-.129.72933-.20152,1.1296q-.10842.60027-.2251,1.2174-.11565.61882-.2245,1.20158c-.07169.38919-.1395.749-.2001,1.07951-.06179.32882-.1148.61342-.1571.8495a1.79143,1.79143,0,0,1,.1315.12638c.05959.05978.1262.12838.2022.20693.0731.07855.1476.15813.2205.23927.07311.08106.13862.15364.19471.21913a1.5232,1.5232,0,0,1,.1129.14827q.16457-.1561.36791-.34672c.1341-.12613.27351-.25424.4175-.38643q.21345-.19606.4113-.37526.42268-.38487.8536-.7687.4311-.384.84129-.73669c.27412-.23642.5292-.4507.76871-.64828.23669-.19784.44589-.36575.6285-.50658a1.7,1.7,0,0,1,.2982-.18088.52925.52925,0,0,1,.22359-.05217.44613.44613,0,0,1,.1863.04369,1.6909,1.6909,0,0,1,.191.10631c.08509.05191.15729.10035.216.14291.06009.04395.11619.0859.16809.1295a.22739.22739,0,0,0,.0919-.0468,1.64847,1.64847,0,0,0,.136-.11228,1.5867,1.5867,0,0,0,.12592-.12327.20693.20693,0,0,0,.05581-.08677c-.06009-.06687-.1372-.1468-.23131-.24239-.0938-.09585-.20551-.21428-.34179-.35684-.13471-.14118-.2965-.31523-.48221-.52163q-.4341-.486-.692-.794-.25842-.30831-.38149-.44958a.23506.23506,0,0,0-.08249.04308c-.0408.02924-.08731.066-.13831.10944a1.35465,1.35465,0,0,0-.1315.12586.19287.19287,0,0,0-.0576.09075c.0743.108.14491.212.2101.31289.0635.1026.1298.2103.19551.3263a.74577.74577,0,0,1,.11259.311.47117.47117,0,0,1-.05329.267,1.09653,1.09653,0,0,1-.2007.26047c-.15341.15874-.3135.31549-.4776.47648-.16591.15935-.3442.32769-.5321.50226-.18961.17543-.3946.3654-.6197.57059-.2236.20355-.4699.43089-.7404.67692a.11011.11011,0,0,0-.02721-.02267.10665.10665,0,0,1-.02721-.02266c.02324-.21428.0559-.47544.0989-.77951.0445-.30554.09328-.63781.14859-.99673.05811-.35892.11531-.72743.17711-1.105.06041-.37639.1205-.74742.17861-1.10634.05961-.36.11369-.692.1622-.99871.0303-.18677.06009-.3424.091-.46541a1.96675,1.96675,0,0,1,.11361-.33694c-.05519-.05589-.12209-.12414-.2018-.20719-.07971-.08278-.1633-.17266-.25169-.26791-.0896-.097-.17691-.19109-.2628-.28633-.1984-.22051-.3648-.41108-.5014-.5712-.1381-.16186-.2569-.29958-.3564-.4187s-.19131-.22673-.2772-.322a.30288.30288,0,0,0-.08961.0519c-.0436.03175-.089.07-.14139.11479q-.07482.06721-.13289.12726a.27562.27562,0,0,0-.063.09039" transform="translate(-26.43038 -58.47709)"/><path id="8a1a8cdb-23b9-4f89-8c63-6d8b894e5973" data-name="path841" class="257aeb11-8178-4ced-8aaf-02d3b8961be2" d="M73.48184,206.59633c.0887.09836.16781.19049.23729.28149a2.78638,2.78638,0,0,1,.18111.26333.71323.71323,0,0,1,.07089.16272.31181.31181,0,0,1-.00709.1763.71048.71048,0,0,1-.13181.22284c-.09241.1103-.2135.24827-.3662.41488-.15.16636-.317.34845-.4984.54569-.1828.19585-.3682.3949-.555.595q-.36613.3924-.6253.67319-.26026.27938-.45159.48453c-.1281.1346-.24832.26081-.3569.37414-.1097.11228-.225.22734-.34551.34248a.682.682,0,0,1-.22031.16894.35689.35689,0,0,1-.1938.03374.42611.42611,0,0,1-.17439-.06012c-.07449-.038-.17541-.09836-.3056-.18028-.13031-.08478-.2882-.19308-.4762-.32881a.65583.65583,0,0,0-.121.09637,2.01111,2.01111,0,0,0-.1463.15675,1.02739,1.02739,0,0,0-.10851.15026c.11761.10969.2463.22708.3889.35493.14139.12639.288.258.4362.39093q.22453.20151.43629.39118c.14139.12639.2687.24265.3835.34949q.80865.75806,1.4321,1.36689.6225.60792,1.0987,1.05615a1.51385,1.51385,0,0,0,.2908.22137.35684.35684,0,0,0,.174.055.26168.26168,0,0,0,.097-.01981,3.0706,3.0706,0,0,0,.3163-.13183c.11991-.05554.24381-.11791.37-.18625.1292-.068.25251-.13859.3722-.20779.1207-.07085.22961-.13409.3265-.19559.09519-.06038.17209-.10917.2262-.14741a.29583.29583,0,0,0-.02721-.12249,1.67555,1.67555,0,0,0-.07821-.18028c-.03209-.0635-.06381-.12215-.09668-.17379a.48512.48512,0,0,0-.08621-.10684,5.4039,5.4039,0,0,1-.55949.19845,5.24371,5.24371,0,0,1-.52671.12387,1.29668,1.29668,0,0,1-.3731.01981.67529.67529,0,0,1-.26609-.09636,1.51736,1.51736,0,0,1-.23981-.19222c-.186-.17379-.353-.33712-.5046-.489-.15021-.15338-.2755-.28833-.3773-.404a2.48324,2.48324,0,0,1-.21509-.27154.38114.38114,0,0,1-.04-.21264.40977.40977,0,0,1,.11369-.23694l1.1826-1.26853a.13132.13132,0,0,1,.06571-.02266.09665.09665,0,0,1,.072.01133q.097.09018.2353.21938c.091.085.18369.17379.2801.26393.09549.09152.18079.17379.2582.25113.07568.076.1332.1346.16869.17543a.4222.4222,0,0,1,.10879.20606.43668.43668,0,0,1-.0371.22224l-.25232.4558a.2765.2765,0,0,0,.0703.11255,1.29044,1.29044,0,0,0,.1406.14143c.05579.0468.10859.08841.1573.123a.37076.37076,0,0,0,.11848.061c.04712-.053.1029-.11877.1721-.19559.0663-.07682.1394-.15787.2177-.24464q.11518-.12794.22668-.25173c.07461-.07967.13981-.15251.1971-.214.05748-.06176.12548-.129.20151-.20467.07739-.07457.15591-.15052.23871-.22795.07991-.07742.15729-.14914.23068-.21687.07232-.066.13522-.12249.18649-.169a.41733.41733,0,0,0-.0722-.12474,1.65233,1.65233,0,0,0-.137-.159,1.41781,1.41781,0,0,0-.1485-.14118.33393.33393,0,0,0-.10661-.07085c-.07.04992-.14281.1026-.21679.15649-.074.05416-.13862.09836-.1931.13149a.48983.48983,0,0,1-.25252.09949.33168.33168,0,0,1-.22141-.09637c-.07679-.06376-.1607-.1366-.25291-.22025-.091-.08218-.18479-.167-.2772-.25571-.0938-.08763-.182-.16981-.26311-.24551-.0816-.07854-.14989-.14256-.206-.19472a.09385.09385,0,0,1-.02664-.0641.0906.0906,0,0,1,.02324-.06722q.26657-.28574.4819-.52466c.1459-.15961.2882-.31488.4291-.466.13949-.15251.294-.31238.4601-.47942a.27336.27336,0,0,1,.066-.04568.38174.38174,0,0,1,.09241-.03711.10369.10369,0,0,1,.07319.00286c.03059.01981.08079.06462.15468.12837.07291.06523.1594.14369.25739.23245q.145.13482.2982.27777c.10092.09663.1948.18711.28321.2718.08561.085.1571.15424.20781.20952a.7716.7716,0,0,1,.1063.13832.53689.53689,0,0,1,.068.197.52944.52944,0,0,1-.03061.25173,1.61023,1.61023,0,0,1-.0788.18539c-.0292.05925-.0675.12586-.1122.20182-.0462.07483-.10661.16756-.1798.27976a.32737.32737,0,0,0,.0737.09749,1.59869,1.59869,0,0,0,.14008.12812,1.389,1.389,0,0,0,.1556.11367.29372.29372,0,0,0,.11559.05017c.169-.16445.334-.32457.4967-.47942.16378-.15588.316-.29672.4592-.42492.14309-.12561.2681-.22872.3778-.30718a.09607.09607,0,0,0,.01049-.04767.04608.04608,0,0,0-.01333-.03348c-.09008-.06064-.1874-.133-.2931-.216-.10459-.08417-.212-.17146-.3197-.26644-.1089-.09386-.2152-.18763-.31579-.2789-.10211-.08988-.19452-.176-.277-.25312l-1.8229-1.69968c-.13858-.12924-.28321-.26929-.4363-.41981-.15131-.14914-.30551-.29819-.4569-.44724-.1531-.15026-.2974-.29032-.436-.41947a.21466.21466,0,0,0-.09581.0468,1.37662,1.37662,0,0,0-.12929.10744,1.08542,1.08542,0,0,0-.11872.12474.26485.26485,0,0,0-.05728.101Zm7.8687,12.03617c-.20319.07942-.3776.14741-.5219.20468a2.33859,2.33859,0,0,1-.4039.12188,1.21186,1.21186,0,0,1-.2996.02552.51252.51252,0,0,1-.1942-.04956.74569.74569,0,0,1-.1516-.10174c-.1114-.087-.23839-.186-.3804-.29965q-.21345-.17011-.4448-.35459-.23173-.18841-.45439-.36965c-.1488-.12362-.2857-.23754-.409-.34377-.12651-.10606-.2302-.19672-.3133-.2738a1.38113,1.38113,0,0,1-.15931-.16324.0503.0503,0,0,1,.00511-.04282.07643.07643,0,0,1,.043-.03659c.0893-.017.21941-.03512.39211-.051.17121-.017.3656-.03261.5845-.04844.21909-.017.4447-.03149.6777-.0462.23158-.01418.4536-.02837.6645-.04221.21121-.01133.3954-.02266.5505-.03625.1559-.01133.2664-.01981.33189-.02975a.23388.23388,0,0,0,.06041-.04283c.02722-.02266.05131-.04731.07569-.072a.3434.3434,0,0,0,.04668-.06324c-.02381-.13745-.04561-.31488-.066-.52777-.02239-.214-.0411-.44508-.05811-.694-.01814-.24715-.0303-.49256-.0411-.73409-.00794-.24179-.01417-.46039-.01446-.65278a4.47313,4.47313,0,0,1,.017-.44793.06711.06711,0,0,1,.0258-.036c.01106-.01133.02012-.01418.02579-.01133.01928.01419.06441.04533.13641.09922.06911.05416.157.12276.25931.20269.10409.07855.21291.16609.3294.25969.116.09075.2285.18314.3391.2718.1105.09153.2077.17233.2919.24516.08652.07258.148.13037.18879.17207a.61742.61742,0,0,1,.159.24092.4734.4734,0,0,1-.01644.32232c-.03031.08564-.078.19646-.142.33141-.06381.1346-.1446.28772-.2435.46056a.14754.14754,0,0,0,.05752.1006.918.918,0,0,0,.13981.11679,1.0802,1.0802,0,0,0,.15128.089c.0479.02267.0777.03115.093.02552.25679-.26358.5026-.49412.7333-.69309.23052-.1987.4505-.37423.6557-.525a.063.063,0,0,0,.023-.04507.0523.0523,0,0,0-.00992-.0468c-.0811-.04844-.17458-.10917-.27751-.18252-.1046-.07457-.214-.155-.3299-.24317-.1146-.08677-.2262-.17656-.3371-.26817l-2.6158-2.04372q-.33284-.25978-.5533-.43937c-.14539-.11851-.26141-.216-.3467-.29031-.08651-.07258-.15109-.12985-.19219-.16722a.23137.23137,0,0,0-.0921.04,1.01633,1.01633,0,0,0-.1171.09074,1.15481,1.15481,0,0,0-.10539.10684.28464.28464,0,0,0-.055.0859q.0387.19814.07141.51506c.02069.21289.03909.4507.0559.71169.01615.2628.03.531.03959.811.01248.27925.02268.54967.0292.81472.00595.2622.01162.5046.015.72086q.003.327.004.53539c-.002.13919-.004.22284-.00708.25173a.05448.05448,0,0,1-.01361.03314.0675.0675,0,0,1-.0286.02266,3.65345,3.65345,0,0,1-.4178.07431c-.19761.02552-.4275.05268-.6877.07794-.26141.02267-.5315.04594-.8101.06376-.2778.017-.54091.0295-.7884.03547-.24741.00571-.4549.00285-.6213-.00571a.679.679,0,0,0-.14772.06436c-.0743.03936-.15729.08365-.24891.13832-.09178.05216-.17371.10459-.24721.15191a.76573.76573,0,0,0-.142.10995.10159.10159,0,0,0-.01644.05527.05517.05517,0,0,0,.01219.04369l.7452.53859,3.00419,2.40523c.1522.11877.282.22024.39.29957a2.18727,2.18727,0,0,0,.2829.18227.33358.33358,0,0,0,.11109.017.35546.35546,0,0,0,.1417-.02266,1.28722,1.28722,0,0,0,.27871-.12985c.121-.07059.25789-.15563.4087-.25883.15258-.10208.30449-.20917.4573-.32059.15128-.10995.29139-.21462.4133-.31134.12438-.09723.21821-.1769.2846-.23694.00992-.01981.004-.05216-.01531-.10147a1.17073,1.17073,0,0,0-.07659-.157,1.56321,1.56321,0,0,0-.1029-.14853.23736.23736,0,0,0-.08529-.074Zm7.1932,2.65324a.12277.12277,0,0,0,0-.09922.81843.81843,0,0,0-.06179-.14092.87381.87381,0,0,0-.095-.13322.34689.34689,0,0,0-.08921-.0833,2.20166,2.20166,0,0,1-.45779.12759.43619.43619,0,0,1-.2883-.049c-.10321-.05553-.19361-.10969-.26929-.15848-.07679-.04706-.15619-.1006-.23871-.15623a.45242.45242,0,0,1-.123-.10856.2728.2728,0,0,1-.03631-.17232,1.4688,1.4688,0,0,1,.06689-.32172.27483.27483,0,0,0-.06429-.055c-.03659-.02552-.08-.04931-.12651-.07621-.04929-.02552-.0949-.04793-.14-.06661a.29844.29844,0,0,0-.1012-.02552,2.9072,2.9072,0,0,1-.2594.26133c-.10769.0981-.22479.19958-.3515.30563-.127.10606-.25591.20831-.38459.30641-.1296.09974-.2475.18876-.35781.2667-.1114.07967-.2029.14005-.2755.18564a.1518.1518,0,0,0,.00992.099.66974.66974,0,0,0,.063.14655.7928.7928,0,0,0,.0896.14118.22658.22658,0,0,0,.09352.07681c.16441-.06211.2908-.10605.38069-.13322a.61293.61293,0,0,1,.2117-.03287.43461.43461,0,0,1,.163.05242,3.21931,3.21931,0,0,1,.288.17578c.0927.06462.18.12362.26142.18089a.20654.20654,0,0,1,.085.08953.24556.24556,0,0,1,.001.14854,2.04343,2.04343,0,0,1-.09241.28426.15956.15956,0,0,0,.0559.08131.72886.72886,0,0,0,.121.091.93726.93726,0,0,0,.1378.07.19526.19526,0,0,0,.10769.01419c.16611-.1539.3436-.31091.5366-.46714q.287-.236.5817-.44819.29368-.21437.5581-.379Zm-3.9254,3.00533a4.42111,4.42111,0,0,0,.7608.40926,4.274,4.274,0,0,0,.8524.25623,3.8845,3.8845,0,0,0,.9045.06289,3.46568,3.46568,0,0,0,.9167-.17145,3.08087,3.08087,0,0,0,.7183-.356,3.9304,3.9304,0,0,0,.6361-.53184,4.844,4.844,0,0,0,.5369-.663,3.85129,3.85129,0,0,0,.4862-1.0046,3.47133,3.47133,0,0,0,.16038-1.06922,3.27408,3.27408,0,0,0-.1908-1.0732,3.501,3.501,0,0,0-.5658-1.0097,4.352,4.352,0,0,0-.968-.87934,5.15029,5.15029,0,0,0-1.3649-.67129,3.79312,3.79312,0,0,0-1.2495-.17743,3.15362,3.15362,0,0,0-.9122.16757,3.33042,3.33042,0,0,0-.773.37924,3.76747,3.76747,0,0,0-.627.519,4.16593,4.16593,0,0,0-.4779.58513,4.52947,4.52947,0,0,0-.434.80408,3.83138,3.83138,0,0,0-.25461.91844,3.1703,3.1703,0,0,0,.01758.99777,3.2161,3.2161,0,0,0,.2908.86567,3.76271,3.76271,0,0,0,.5913.84214,5.33965,5.33965,0,0,0,.9457.7994Zm.6426-.398a2.16761,2.16761,0,0,1-.4966-.46169,1.74941,1.74941,0,0,1-.29771-.55865,2.74964,2.74964,0,0,1-.0822-.98367,3.51245,3.51245,0,0,1,.26019-1.00226,5.99509,5.99509,0,0,1,.5743-1.03947,4.32645,4.32645,0,0,1,.6617-.77518,3.10739,3.10739,0,0,1,.7591-.52267,1.85254,1.85254,0,0,1,.7792-.197,1.09956,1.09956,0,0,1,.4065.06151,1.67806,1.67806,0,0,1,.379.19109,1.905,1.905,0,0,1,.4575.42405,1.57555,1.57555,0,0,1,.267.53565,2.46681,2.46681,0,0,1,.053.93834,4.0044,4.0044,0,0,1-.27439,1.02977,5.56384,5.56384,0,0,1-.553,1.02874,5.97112,5.97112,0,0,1-.5956.75286,3.58629,3.58629,0,0,1-.6604.56135,1.82376,1.82376,0,0,1-.6931.28088.97183.97183,0,0,1-.3373-.01419,1.61311,1.61311,0,0,1-.332-.10372,1.55843,1.55843,0,0,1-.27519-.14654Zm4.1879,2.71734a.46305.46305,0,0,0-.10661.13582,1.394,1.394,0,0,0-.0938.201.51593.51593,0,0,0-.04139.159c.1256.06125.26671.12561.4224.195.15559.06972.3104.14092.4677.21142.1573.07033.3036.1372.4362.20182.35351.17466.6438.32232.86831.44283.22648.121.3994.21176.5207.273a.44444.44444,0,0,0,.07631-.08616c.02939-.04308.0589-.09075.0893-.144a1.6839,1.6839,0,0,0,.07559-.15052.2878.2878,0,0,0,.03149-.09975c-.0836-.05977-.16552-.119-.24489-.17915-.07849-.05727-.15871-.1199-.2418-.186a.41133.41133,0,0,1-.17181-.24153.38474.38474,0,0,1,.04909-.24,1.62864,1.62864,0,0,1,.252-.31584c.13209-.14.3024-.31462.5153-.5238a.18921.18921,0,0,1,.0896-.04368.13564.13564,0,0,1,.0847.00086c.05159.01981.11089.04767.17889.07881.06631.03.148.06774.24259.11393s.2118.1032.34759.16955c.098.04793.20409.09724.31571.15165.11429.05389.222.10407.3252.1545.10321.05017.18851.09412.25739.13184a.15929.15929,0,0,1,.062.06012.176.176,0,0,1,.02636.07258c-.002.08391-.00708.186-.01729.30666-.01077.11817-.02239.24265-.04.37025-.01673.13037-.03449.24949-.0547.36082a2.00037,2.00037,0,0,1-.0652.26869.17282.17282,0,0,1-.0487.08279.29077.29077,0,0,1-.1398.068.80947.80947,0,0,1-.2528-.02267c-.1055-.02266-.22391-.05614-.3543-.09411a.24676.24676,0,0,0-.0655.08105,1.58456,1.58456,0,0,0-.07371.14715c-.02324.05666-.0451.10995-.0627.159a.63088.63088,0,0,0-.02971.11306c.12921.06324.27519.13011.4362.20208.159.07111.3413.15589.5451.24914q.30572.13911.69621.32855c.3045.14853.55729.27613.76309.38288.20381.10571.3725.19222.5043.26281.13182.07085.2401.12811.3279.17067a.21175.21175,0,0,0,.07971-.07171,1.21918,1.21918,0,0,0,.09811-.13971,1.361,1.361,0,0,0,.0833-.14879.28223.28223,0,0,0,.03231-.10995q-.2376-.16077-.3872-.2846a1.109,1.109,0,0,1-.2285-.24776.74252.74252,0,0,1-.10539-.27725,1.846,1.846,0,0,1-.02268-.3776q.006-.22072.02806-.54188c.0139-.22959.03291-.49949.06041-.80987q.03783-.46351.08809-.99206c.0332-.35243.06638-.70866.10151-1.06438s.0686-.69508.09949-1.01645c.0329-.32059.05839-.60416.08161-.85269.00708-.07544.01814-.15935.03239-.25459.01474-.09525.0317-.19136.047-.28833q.02551-.14378.0462-.2648c-.093-.03261-.1885-.07283-.2871-.11877-.09981-.04446-.2033-.095-.3116-.14767-.10309-.05043-.2029-.09922-.2993-.15026-.0972-.04957-.19111-.10173-.2789-.15735a2.54387,2.54387,0,0,1-.205.258c-.0853.101-.17771.19871-.27269.29706-.09661.09776-.1814.18-.25932.24862q-.1935.18621-.4819.4635c-.1942.18426-.4096.39-.6492.61429q-.35972.33842-.75911.7052c-.2664.2449-.5354.49066-.8104.73591-.27329.24576-.54091.47925-.8022.70546a3.15826,3.15826,0,0,1-.3867.29507.97872.97872,0,0,1-.3359.14291,1.074,1.074,0,0,1-.3804-.00285,3.847,3.847,0,0,1-.51729-.12673Zm5.2243-2.64052q-.01616.20957-.0443.47033c-.01616.17345-.0368.3507-.05642.53072-.02126.17916-.0411.35061-.06089.50909-.01814.15961-.03568.29585-.04989.40823s-.02381.18849-.02951.22647a.0861.0861,0,0,1-.021.02552.03641.03641,0,0,1-.03509.01133,2.12449,2.12449,0,0,1-.21489-.08789c-.1057-.04507-.24429-.11055-.4147-.1936-.1497-.0731-.27349-.13348-.37419-.18452-.1014-.04957-.1808-.09239-.2401-.12786a.0506.0506,0,0,1-.01588-.05467.13232.13232,0,0,1,.03-.05329c.1072-.10571.22229-.224.3478-.35009.1262-.12811.25429-.25969.3881-.39429.1315-.13409.2622-.26644.3909-.39525.127-.1295.24749-.24975.3586-.3597a.02431.02431,0,0,1,.0224.00571c.00793.00571.0136.01134.019.01419Zm5.27579,1.25832c.1035.06038.20042.12051.2954.18141a3.27492,3.27492,0,0,1,.2956.21912.36416.36416,0,0,1,.13811.23356.622.622,0,0,1-.0426.30606c-.03881.10632-.08019.21342-.123.32432-.04221.10882-.09349.23469-.15159.37639-.05981.14118-.12992.311-.21462.5103q-.12538.296-.30639.72216c-.0375.08815-.08541.201-.1429.33651-.0578.13581-.1205.28374-.18941.4462-.0705.16124-.13909.32344-.2097.48893-.072.16471-.14031.32085-.20239.46714-.06381.14541-.1196.27154-.16869.3776-.04669.10519-.0822.17941-.1046.222a1.47558,1.47558,0,0,1-.1794.28582.32614.32614,0,0,1-.18709.11194.76073.76073,0,0,1-.2687-.017c-.06239-.01419-.14-.03261-.23131-.05242-.09241-.02267-.19959-.04957-.3226-.08279a.19257.19257,0,0,0-.07679.07742.91716.91716,0,0,0-.0805.15113.93126.93126,0,0,0-.0567.163.20186.20186,0,0,0-.001.11592c.09858.04169.20318.08417.3104.1256.10911.042.2304.08928.3659.14291.13352.05242.292.1154.4714.18738s.3901.15934.63161.26194q.46215.19645.78539.33962c.2152.0955.3963.17855.5437.2475.1486.06721.2747.127.3807.176a.20156.20156,0,0,0,.08959-.068,1.09748,1.09748,0,0,0,.09922-.13659,1.41308,1.41308,0,0,0,.08161-.15251.29248.29248,0,0,0,.02979-.11428c-.07679-.04931-.1582-.10259-.24489-.15813-.08589-.053-.1653-.10545-.2378-.155a1.87413,1.87413,0,0,1-.16762-.125.43569.43569,0,0,1-.14739-.20606.442.442,0,0,1-.01135-.20865,1.3,1.3,0,0,1,.05871-.20182c.0394-.108.09519-.24862.1675-.42371s.15421-.37345.2495-.59283q.14028-.33077.2962-.69785c.10511-.24239.20892-.48746.31291-.73245.12869-.30312.23839-.56636.3351-.7937.0938-.22621.17691-.4218.24832-.58513.072-.16471.13459-.30251.19021-.4141a1.88335,1.88335,0,0,1,.09751-.18513.42194.42194,0,0,1,.13949-.14256.3376.3376,0,0,1,.21881-.04023,2.56908,2.56908,0,0,1,.3158.05467c.11481.02838.23269.05952.3574.09352a.22628.22628,0,0,0,.06951-.08478,1.55511,1.55511,0,0,0,.12949-.31488.284.284,0,0,0,.01644-.1077c-.0669-.02838-.14519-.05952-.233-.09274-.0896-.034-.1987-.076-.3306-.12785-.13032-.051-.2939-.11618-.48921-.195-.197-.07967-.434-.178-.7158-.29758q-.57524-.24745-.97849-.434c-.26759-.12387-.49091-.22509-.6681-.30251a.24462.24462,0,0,0-.078.08564.87224.87224,0,0,0-.079.14741,1.16142,1.16142,0,0,0-.06009.15537.342.342,0,0,0-.01957.11029" transform="translate(-26.43038 -58.47709)"/><path id="ef746305-b324-4266-81c0-0f4d9bd7b113" data-name="path845" class="257aeb11-8178-4ced-8aaf-02d3b8961be2" d="M112.605,232.33124a.19868.19868,0,0,0,.00907.10969.94617.94617,0,0,0,.059.15848.92271.92271,0,0,0,.0836.14715.24158.24158,0,0,0,.08129.08443c.0896-.044.2685-.13582.53521-.27492s.6157-.31038,1.04879-.51454c.19591-.09126.39891-.18166.61151-.2744.2097-.09351.4184-.18478.62759-.27578.20891-.091.4082-.17967.5972-.26791a.195.195,0,0,0,.0119-.1154.84455.84455,0,0,0-.03821-.16808.89615.89615,0,0,0-.06322-.15848.24366.24366,0,0,0-.07061-.09187c-.0845.02266-.17608.04818-.27269.07656-.095.02837-.18711.05129-.2744.07283a1.31865,1.31865,0,0,1-.2135.04058.38872.38872,0,0,1-.2276-.03547.45377.45377,0,0,1-.159-.14118,1.62048,1.62048,0,0,1-.12671-.21774c-.01644-.03036-.05051-.099-.1006-.20242-.04881-.10407-.10951-.22985-.17889-.379-.0714-.14853-.14432-.30467-.2211-.46938-.0785-.16385-.1531-.32371-.2242-.47622-.07148-.15277-.13348-.28634-.18629-.39923-.05241-.1128-.089-.19074-.1091-.23443q-.2802-.6008-.46431-1-.18282-.39927-.29339-.64265c-.07339-.16212-.13011-.28772-.16782-.37812-.03971-.08928-.0695-.15762-.08758-.20606a.13629.13629,0,0,1,.0003-.04879.70533.70533,0,0,1,.00907-.08019.11047.11047,0,0,1,.01077-.04533c.02778-.017.0955-.05268.1999-.10571q.16021-.07787.3877-.18712c.15139-.07482.31409-.15078.4845-.23019.16919-.08106.3331-.15537.48919-.2282.1571-.07111.29311-.13236.40941-.18227.11361-.05078.19408-.08219.23609-.09551.01757-.00847.04139.002.07481.02864a.51675.51675,0,0,1,.10091.13036c.06551.11307.1421.25909.22708.43712.08671.17691.1919.4026.31889.675.12612.27042.28009.60459.4652,1.002l.119.25485c.0559.11964.12221.26194.19729.42354.07631.163.15532.33314.23531.50909.08189.17518.16039.34334.23381.50572.0743.1596.13751.2994.1908.41384.05241.11705.08818.19758.1057.2398a.61768.61768,0,0,1,.0587.29369.34084.34084,0,0,1-.1137.21376,2.6901,2.6901,0,0,1-.2537.1987c-.098.06661-.2052.13547-.3174.20719a.2712.2712,0,0,0,.02012.10657,1.58567,1.58567,0,0,0,.06322.15848,1.19228,1.19228,0,0,0,.08589.14793.20187.20187,0,0,0,.0845.07682c.11449-.05329.24029-.11428.3829-.18478.1406-.07.288-.14291.4394-.21774.1508-.07431.2985-.14741.4408-.21826q.21392-.10587.388-.18711c.18229-.085.3731-.16981.56979-.25511.1984-.08616.3963-.174.593-.25969.19839-.08616.3892-.17094.5695-.25511a.22479.22479,0,0,0-.0003-.10943,1.20666,1.20666,0,0,0-.0417-.1667,1.1053,1.1053,0,0,0-.05981-.15986.32861.32861,0,0,0-.05811-.09775c-.20461.05977-.373.10631-.50649.14144a1.667,1.667,0,0,1-.3266.057.35139.35139,0,0,1-.19779-.05328.53051.53051,0,0,1-.15061-.13694,1.10884,1.10884,0,0,1-.11421-.17717c-.06009-.1154-.12841-.2526-.20469-.4071q-.11565-.23435-.24151-.50416c-.08589-.17967-.17339-.36289-.2607-.55027s-.17241-.36929-.25571-.54819c-.135-.28971-.26542-.56921-.3901-.83617-.12441-.26731-.235-.50909-.33311-.72337-.09858-.216-.17849-.392-.23748-.52717a1.48866,1.48866,0,0,1-.09411-.27492.36441.36441,0,0,1,.0051-.18823.43582.43582,0,0,1,.10121-.16324,1.46487,1.46487,0,0,1,.20041-.18651,3.55681,3.55681,0,0,1,.3402-.23045.22547.22547,0,0,0-.00511-.11393,1.04163,1.04163,0,0,0-.0504-.16246.75047.75047,0,0,0-.07909-.1468.14192.14192,0,0,0-.08339-.07085c-.14419.06721-.30919.14827-.494.24066-.18491.09273-.37791.18677-.5766.286-.197.0981-.3864.19075-.5703.27639l-4.0604,1.89328c-.1752.08166-.35709.16246-.54679.24438-.1882.08132-.379.16609-.5686.24827-.1919.08305-.3756.16471-.55451.24776a.18994.18994,0,0,0,.001.11142.92363.92363,0,0,0,.0599.16012.97708.97708,0,0,0,.085.15052.22416.22416,0,0,0,.087.07769c.09871-.03772.186-.06774.2628-.093.076-.02266.14771-.04135.21659-.05666.068-.01133.142-.02552.2194-.03685a.37029.37029,0,0,1,.2043.01133.36611.36611,0,0,1,.1508.12838,1.88593,1.88593,0,0,1,.14771.25822c.04079.0782.0953.19023.16591.33677.0686.14766.15129.32033.24429.5199.09471.19871.1967.41722.3067.6533q.1662.35632.3473.74413.21932.47115.3897.84482c.114.24914.20781.45459.27919.61757q.108.24447.14032.32743a1.4013,1.4013,0,0,1,.09669.31609.40888.40888,0,0,1-.02183.23444.55273.55273,0,0,1-.1675.20268q-.1.0846-.21549.1763-.11565.09187-.27779.2058Zm4.9218-9.032c.11911-.05813.2293-.10883.33591-.15078a2.79223,2.79223,0,0,1,.303-.10147.80745.80745,0,0,1,.17608-.02267.30811.30811,0,0,1,.1675.05588.71525.71525,0,0,1,.1777.188c.08051.11938.18.2738.298.46627.11872.19023.24741.40079.3872.62994q.207.34438.4189.69733c.18459.30667.3422.56948.47509.78661q.19648.327.3413.56774c.0938.16012.182.31038.2611.44594.07769.13633.1567.2789.23411.42656a.69144.69144,0,0,1,.10179.25823.36052.36052,0,0,1-.021.19585.45.45,0,0,1-.1057.15078c-.05729.061-.1429.14144-.25771.244-.1176.10173-.26529.224-.44759.36714a.60761.60761,0,0,0,.0593.14316,2.03959,2.03959,0,0,0,.11049.18366,1.04488,1.04488,0,0,0,.1143.14567c.138-.08278.2863-.17431.44839-.27612.16042-.101.32741-.2058.4963-.31151q.25558-.16026.4961-.3116c.1607-.10121.30731-.19135.4419-.27241q.9516-.56809,1.7087-.99967c.504-.2872.9446-.54291,1.3182-.76506a1.4974,1.4974,0,0,0,.29309-.21852.35222.35222,0,0,0,.10029-.1519.24388.24388,0,0,0,.00794-.09862,3.18415,3.18415,0,0,0-.03909-.34049c-.0204-.13071-.04648-.2667-.0771-.407-.03-.14257-.064-.28089-.09751-.41506-.03462-.13547-.06551-.25736-.09811-.3674-.03169-.1083-.0572-.19585-.07928-.25848a.27236.27236,0,0,0-.125-.00571,1.33159,1.33159,0,0,0-.1948.02552c-.0703.01419-.13521.02838-.19419.04507a.46031.46031,0,0,0-.12612.05355,5.41626,5.41626,0,0,1,.03631.59214,5.13771,5.13771,0,0,1-.0258.54058,1.204,1.204,0,0,1-.0851.36367.67759.67759,0,0,1-.16611.22933,1.523,1.523,0,0,1-.25051.17742c-.21861.131-.4218.24663-.6092.35036-.18879.10233-.35319.18538-.49239.25112a2.514,2.514,0,0,1-.3203.1321.38311.38311,0,0,1-.2157-.01981.41008.41008,0,0,1-.1965-.17466l-.8932-1.48653a.17413.17413,0,0,1-.004-.06946.10173.10173,0,0,1,.0292-.06661l.27582-.16557c.1065-.0641.21739-.12873.3308-.19672.11421-.06635.21679-.12587.3123-.17889.09391-.05191.16639-.091.21548-.11367a.42316.42316,0,0,1,.2282-.04793.43679.43679,0,0,1,.20318.097l.3685.36826a.30061.30061,0,0,0,.1279-.03659,1.40008,1.40008,0,0,0,.17458-.09611c.0604-.04057.1148-.08019.1618-.11739a.36852.36852,0,0,0,.091-.09723c-.038-.05952-.08561-.13149-.1406-.21912-.0555-.085-.11341-.17743-.1752-.27665-.06089-.09749-.12039-.19334-.17941-.28737-.0561-.09352-.10831-.1763-.15159-.24862s-.0893-.15623-.14119-.24975c-.05051-.09524-.1015-.19161-.15341-.29222-.0521-.0981-.0997-.19247-.14451-.28175-.0437-.08763-.0805-.16384-.11108-.22561a.40037.40037,0,0,0-.13981.03486,1.53149,1.53149,0,0,0-.1908.08764,1.48413,1.48413,0,0,0-.1766.10406.33381.33381,0,0,0-.09751.08305c.02868.08106.0593.16557.09071.25147.0318.08616.05641.16047.07319.222a.48716.48716,0,0,1,.02609.27016.329.329,0,0,1-.1539.18625c-.0822.05614-.1754.11678-.2812.18227-.104.06488-.21121.13149-.3223.19585-.1097.066-.21311.12837-.3084.18564-.09779.0564-.1783.10459-.24381.144a.0979.0979,0,0,1-.0691.00848.08688.08688,0,0,1-.05811-.04083q-.20117-.335-.3717-.60771c-.11311-.18426-.22332-.364-.3296-.54118-.10832-.176-.2194-.36852-.3342-.57406a.24286.24286,0,0,1-.02551-.07621.43212.43212,0,0,1-.0102-.099.10675.10675,0,0,1,.023-.06946c.02806-.02267.08481-.05978.1664-.11341.08251-.05216.18169-.11393.294-.18365q.16995-.10161.3498-.20978c.1207-.07033.23321-.13582.339-.19732.1054-.05865.1919-.10857.2588-.14205a.73128.73128,0,0,1,.1624-.0641.50365.50365,0,0,1,.20781-.01133.51918.51918,0,0,1,.2336.09862,1.62312,1.62312,0,0,1,.15669.127c.0491.0442.10231.09948.163.16358.059.06488.13182.14853.21941.25a.35266.35266,0,0,0,.11421-.04421,1.42365,1.42365,0,0,0,.1616-.09922,1.375,1.375,0,0,0,.1522-.11817.29731.29731,0,0,0,.08031-.09723q-.16756-.31168-.324-.60953c-.10491-.20043-.1982-.38547-.28211-.55874-.08129-.17232-.146-.32086-.191-.44811a.09523.09523,0,0,0-.04312-.02266.05522.05522,0,0,0-.03568.00285c-.08311.07-.17949.14369-.28831.2225-.11.07742-.2234.15649-.3444.23356-.12019.07881-.23981.155-.3552.22708-.11449.0731-.2228.13807-.3198.19646l-2.1364,1.28376c-.16251.09749-.3368.19758-.5236.303-.1851.10459-.3708.21177-.5562.31644-.18649.10545-.3608.2058-.52321.30329a.2259.2259,0,0,0,.01843.10519,1.30181,1.30181,0,0,0,.06769.15364,1.08321,1.08321,0,0,0,.08711.14853.26665.26665,0,0,0,.0813.08305Zm10.7391-2.276a2.1357,2.1357,0,0,0,.20121-.10346,3.05349,3.05349,0,0,0,.277-.17492,2.86607,2.86607,0,0,0,.3849-.32829,3.04384,3.04384,0,0,0,.3263-.392,2.67228,2.67228,0,0,0,.24089-.42319,2.30908,2.30908,0,0,0,.18771-.65,2.02492,2.02492,0,0,0-.0425-.74162,2.35571,2.35571,0,0,0-.37019-.79248,2.15422,2.15422,0,0,0-.4975-.51654,1.84343,1.84343,0,0,0-.5426-.27439,2.03494,2.03494,0,0,0-.5451-.09075,1.98441,1.98441,0,0,0-.6037.08876,2.95154,2.95154,0,0,0-.52219.216,3.51112,3.51112,0,0,0-.3881.23643c-.21652.15164-.40811.28832-.57481.40735s-.3226.23046-.46769.33669-.29481.21341-.44731.32293c-.1525.10882-.3223.23019-.5106.362q-.27077.18918-.5278.3577c-.1709.11281-.3285.21826-.4731.31238-.14432.09412-.26561.17465-.36421.24377a.39714.39714,0,0,0,.0504.14914,1.3425,1.3425,0,0,0,.11259.18763.648.648,0,0,0,.1247.13461c.1182-.06151.2268-.11679.3257-.16272a2.44544,2.44544,0,0,1,.267-.11229.59629.59629,0,0,1,.25509-.04991.35493.35493,0,0,1,.20721.08875,1.44081,1.44081,0,0,1,.2297.248c.05269.06834.132.17855.2423.33279s.2458.34438.4039.57033c.15939.22734.3371.48133.5361.76541.19761.282.3688.52657.51111.73332.1434.20805.2647.38461.36649.53323.10259.15026.191.27976.26391.39031.07509.11082.144.21229.2035.3039a1.82691,1.82691,0,0,1,.13921.24577.55663.55663,0,0,1,.05269.23893.39256.39256,0,0,1-.0961.233c-.05409.06635-.10709.12413-.15421.17379-.04989.04879-.0998.09775-.1519.14343-.0508.04766-.1097.10034-.17351.159a.39122.39122,0,0,0,.05839.13694,1.41308,1.41308,0,0,0,.12731.182.78451.78451,0,0,0,.13039.133q.375-.26613.7633-.55528.387-.28872.7696-.56022.40831-.28236.8487-.5731c.2943-.19421.5783-.38608.8553-.57769a.40469.40469,0,0,0-.04311-.16835,1.02649,1.02649,0,0,0-.1112-.18875.46621.46621,0,0,0-.12442-.12077c-.1389.07855-.26961.1488-.3878.21065a3.10108,3.10108,0,0,1-.362.16012.45261.45261,0,0,1-.492-.07846,1.06517,1.06517,0,0,1-.15741-.16808c-.07568-.10121-.16211-.21826-.2605-.3552-.09811-.13659-.2007-.28-.3092-.43513-.10951-.15277-.2169-.3064-.324-.46263-.1078-.1539-.20891-.29793-.3042-.43461-.09411-.13746-.1777-.25658-.24769-.35684q-.33135-.47284-.5568-.79517c-.14961-.21341-.27459-.392-.373-.53573-.09871-.14144-.1817-.26307-.25061-.36446-.0692-.099-.12981-.19221-.1874-.27777a.1977.1977,0,0,1-.02834-.10407.4434.4434,0,0,1,.002-.0737.53484.53484,0,0,1,.07-.09351q.04753-.04723.09379-.08677c.0318-.02552.05589-.04368.076-.05778a1.44917,1.44917,0,0,1,.75739-.28037,1.27627,1.27627,0,0,1,.72571.1885,2.09863,2.09863,0,0,1,.642.623,1.84186,1.84186,0,0,1,.3325.749,1.0759,1.0759,0,0,1-.07821.61541.911.911,0,0,1-.1525.22621,1.25934,1.25934,0,0,1-.19839.174c-.0754.05242-.1378.09386-.18539.1225-.04909.02975-.08.049-.0941.059a.22441.22441,0,0,0,.00793.07431.27206.27206,0,0,0,.0309.08106.49811.49811,0,0,0,.116.10571,1.29369,1.29369,0,0,0,.1842.10943.50277.50277,0,0,0,.18059.051Zm.6443-5.21625c.1029-.061.20271-.11679.3019-.17008a3.27622,3.27622,0,0,1,.335-.15251.36826.36826,0,0,1,.271-.00847.62735.62735,0,0,1,.24721.186c.074.08565.148.1738.22392.26506.07489.08954.16021.19533.256.31488.09439.12077.20891.2642.3422.43487q.198.25342.4833.61852c.0589.07544.1343.17207.225.288l.2982.38184c.10689.13971.21549.27864.326.42034.10939.14317.21292.27838.3107.40364.09641.12639.17969.23642.2486.33054.06919.09187.11678.159.1434.19931a1.4641,1.4641,0,0,1,.16271.29508.32333.32333,0,0,1,.00709.218.75943.75943,0,0,1-.1463.22622c-.0428.04792-.09629.10683-.1584.1769-.06441.06973-.13981.15052-.2285.24205a.19776.19776,0,0,0,.03061.10458.911.911,0,0,0,.093.14369.94679.94679,0,0,0,.1148.12872.20877.20877,0,0,0,.10091.05727c.08451-.06575.1721-.13694.26051-.21064.0896-.07509.18989-.15814.3022-.25061.1108-.09153.24258-.19957.3926-.32137q.2253-.18322.5352-.42544.39628-.30962.6777-.52216c.188-.142.3487-.26.4802-.3558.1307-.09723.2444-.17855.33881-.24775a.20428.20428,0,0,0-.01644-.11082,1.09891,1.09891,0,0,0-.0711-.15337,1.4885,1.4885,0,0,0-.09379-.14516.294.294,0,0,0-.08589-.08166c-.08031.04334-.16612.08875-.25691.1378-.08779.04905-.17228.09326-.25081.1327a1.86624,1.86624,0,0,1-.19049.0859.43812.43812,0,0,1-.25169.02924.42735.42735,0,0,1-.188-.09126,1.30389,1.30389,0,0,1-.1482-.14914c-.07508-.087-.17118-.20407-.28969-.352-.1182-.14828-.2517-.3161-.3974-.50564q-.2211-.28274-.4669-.59732c-.161-.20952-.3249-.41921-.4887-.62873-.203-.25969-.37979-.483-.5318-.67778-.1525-.19187-.2834-.35944-.3914-.50087-.1095-.14317-.1993-.26445-.2702-.36731a1.9646,1.9646,0,0,1-.1148-.17518.42731.42731,0,0,1-.057-.19074.34119.34119,0,0,1,.07089-.21116,2.68208,2.68208,0,0,1,.20129-.24914c.08019-.087.1647-.17492.25509-.26757a.23475.23475,0,0,0-.04079-.10147,1.18646,1.18646,0,0,0-.09871-.13919,1.09225,1.09225,0,0,0-.11421-.127.26968.26968,0,0,0-.08589-.06661c-.05732.04481-.12251.0981-.19389.15874-.07311.06211-.16271.13694-.2721.22734-.10769.089-.2444.20043-.4079.33313-.165.13383-.366.29309-.6075.48193q-.49485.38305-.8538.64508-.35758.26107-.5885.438a.22338.22338,0,0,0,.03719.10943.85284.85284,0,0,0,.0904.14092,1.20048,1.20048,0,0,0,.10689.1276.34265.34265,0,0,0,.087.07059" transform="translate(-26.43038 -58.47709)"/><path id="fe976da8-e4d6-4d7f-970a-29480364e236" data-name="path847" class="257aeb11-8178-4ced-8aaf-02d3b8961be2" d="M139.63884,214.87293a.203.203,0,0,0,.04419.101.91927.91927,0,0,0,.1071.13037.93617.93617,0,0,0,.12671.11194.24168.24168,0,0,0,.10491.05328q.10543-.10587.4164-.43426.31052-.32737.8241-.82769c.15559-.15026.318-.30165.4887-.4584.16781-.157.3356-.3109.5034-.46506q.25214-.23136.47791-.44793a.1916.1916,0,0,0-.02665-.11306.82036.82036,0,0,0-.09071-.14629.90661.90661,0,0,0-.11149-.12924.23827.23827,0,0,0-.0966-.06375c-.0726.04879-.15049.10285-.23269.161-.0811.05666-.16051.10943-.23591.15813a1.4137,1.4137,0,0,1-.18851.108.39125.39125,0,0,1-.227.04057.46107.46107,0,0,1-.19619-.08166,1.68158,1.68158,0,0,1-.1908-.16471c-.02522-.02266-.07991-.07708-.161-.15848-.07959-.08279-.1783-.182-.2925-.30018-.1159-.11739-.23559-.24126-.362-.37189-.12759-.1295-.25-.256-.36711-.37725-.11678-.12128-.2194-.22734-.3058-.31688l-.17949-.18564q-.46078-.47751-.7645-.79482-.30358-.318-.48669-.51186c-.1224-.1295-.2168-.22985-.28171-.30286-.0667-.07171-.1171-.12673-.1503-.1667a.13268.13268,0,0,1-.01531-.04619.7138.7138,0,0,1-.01786-.07855.14471.14471,0,0,1-.00511-.04645c.0207-.02552.07339-.08106.15449-.165.0842-.08391.18621-.18478.3059-.30364.11841-.11964.248-.24464.3829-.37509.13379-.13149.26481-.25537.3887-.375.125-.11817.2338-.2205.32739-.30563a2.52529,2.52529,0,0,1,.19239-.16721c.0139-.01419.03972-.01133.08.00285a.46929.46929,0,0,1,.13771.0904c.099.08564.21861.19871.35719.33928.13949.13919.3124.318.5213.53426.2075.21489.4615.48055.7659.796.0371.03858.10258.10605.19559.20242.09178.095.20069.20779.3246.33591.125.1295.2554.26445.388.40476.13439.13919.26339.27267.38579.40217.12252.12639.2274.23815.3152.32881.08759.09386.1474.15848.178.19274a.617.617,0,0,1,.15108.25848.34322.34322,0,0,1-.038.23893,2.66118,2.66118,0,0,1-.1751.27042c-.0709.095-.1497.195-.23282.29931a.27178.27178,0,0,0,.05389.09412,1.51371,1.51371,0,0,0,.1114.12924,1.10752,1.10752,0,0,0,.12949.11194.19976.19976,0,0,0,.10459.04533c.091-.08789.1903-.18651.3019-.29931.11-.11194.226-.22907.34439-.349.1185-.11964.23451-.23668.3459-.34983q.16752-.17012.3061-.30364c.1446-.13945.2974-.28175.4555-.4263.1596-.14629.3181-.294.47631-.43876.15959-.146.3123-.28833.4555-.42657a.21548.21548,0,0,0-.036-.10346,1.24634,1.24634,0,0,0-.0936-.14369,1.09481,1.09481,0,0,0-.10879-.13183.32865.32865,0,0,0-.08671-.07345q-.26116.18414-.43321.29854a1.65916,1.65916,0,0,1-.2897.16012.351.351,0,0,1-.20489.01419.53924.53924,0,0,1-.1868-.08054,1.081,1.081,0,0,1-.16559-.13011c-.09439-.08953-.2035-.197-.326-.31825-.12379-.12276-.25421-.25485-.3926-.39837-.13941-.14169-.282-.28633-.4254-.43512-.1438-.14879-.2835-.29335-.4204-.43513q-.3333-.34528-.64089-.66394c-.205-.212-.38841-.40485-.5505-.57544-.16361-.17206-.2968-.31237-.39629-.42129a1.52166,1.52166,0,0,1-.1789-.22933.37317.37317,0,0,1-.05641-.17967.43808.43808,0,0,1,.0428-.18737,1.45282,1.45282,0,0,1,.12869-.24153,3.54608,3.54608,0,0,1,.24662-.32846.23431.23431,0,0,0-.04161-.10632,1.02264,1.02264,0,0,0-.10041-.1372.75492.75492,0,0,0-.12239-.11306.14371.14371,0,0,0-.1021-.04c-.11449.11056-.244.24092-.3889.38859-.1446.14792-.2962.29974-.4521.45779-.1542.15736-.303.30623-.449.44707l-3.2227,3.11207c-.1389.13408-.2849.2699-.4377.409-.1514.13832-.3042.28037-.4567.4199-.15449.14118-.3013.27812-.4433.415a.18258.18258,0,0,0,.03739.10459.93.93,0,0,0,.1086.1321.981.981,0,0,0,.12949.11453.22518.22518,0,0,0,.10749.04533c.081-.06773.1539-.12474.21821-.17379.06441-.0462.12621-.087.1863-.12388.06029-.034.1258-.07085.1955-.10631a.318.318,0,0,1,.3816.01764,1.89489,1.89489,0,0,1,.22391.1962c.06409.06064.152.14879.26621.26445.1131.117.24749.25338.4005.41194.15421.157.3218.33046.5026.51783q.27344.28275.5706.59084.361.37371.6438.67181c.18851.1981.3441.362.4651.49291q.18123.19608.239.26394a1.42247,1.42247,0,0,1,.19451.2673.40494.40494,0,0,1,.0555.22847.54471.54471,0,0,1-.09241.24637q-.06675.11262-.146.23694-.07951.12456-.19578.28521Zm6.04429-5.87734a.46908.46908,0,0,0,.1006.13971,1.41287,1.41287,0,0,0,.16781.146.5138.5138,0,0,0,.14119.08305c.09349-.10372.1944-.22163.3041-.352.11-.13036.2211-.25969.332-.39118.11109-.1321.216-.25424.3143-.36367q.39813-.43755.665-.71264c.1789-.18426.3136-.32536.406-.42518a.4358.4358,0,0,0-.0618-.097c-.03351-.04022-.07089-.08192-.1137-.12561a1.63605,1.63605,0,0,0-.12421-.11427.28573.28573,0,0,0-.087-.05779c-.08078.06376-.1601.12639-.2395.18625-.07679.05952-.1593.11938-.24551.18089a.41037.41037,0,0,1-.27949.09861.39005.39005,0,0,1-.21739-.11341,1.63613,1.63613,0,0,1-.23411-.32933c-.09811-.16557-.21921-.3776-.36169-.6398a.20015.20015,0,0,1-.01729-.0981.13413.13413,0,0,1,.02409-.08105c.03449-.04395.0765-.09352.125-.15026.04759-.05528.1063-.12362.1766-.20182.07051-.07821.15761-.17492.25881-.28747.07311-.08105.14961-.1692.233-.26159.083-.095.161-.18452.23811-.2699.07678-.08564.1423-.15537.19779-.2109a.16039.16039,0,0,1,.0749-.04334.1848.1848,0,0,1,.07678-.00571c.07991.02552.1766.05865.29.10121.11081.04308.227.08841.345.14057.1207.05191.2304.10173.33191.15225a2.02078,2.02078,0,0,1,.2404.13634.17587.17587,0,0,1,.066.07.29262.29262,0,0,1,.02693.15277.82622.82622,0,0,1-.09182.23668c-.05218.095-.11559.20009-.18819.315a.25026.25026,0,0,0,.0598.085,1.62619,1.62619,0,0,0,.121.11142c.04818.03824.0936.0737.1358.10407a.6179.6179,0,0,0,.10089.05977c.0958-.10657.20069-.22846.3144-.36367.11219-.13322.2438-.28487.38949-.45528q.21809-.25549.5079-.57821c.22649-.252.419-.45979.5786-.62821.15789-.1667.2874-.30529.3917-.41238.10409-.10684.18911-.19559.2543-.26791a.222.222,0,0,0-.047-.09663,1.25723,1.25723,0,0,0-.1072-.1327,1.38472,1.38472,0,0,0-.1205-.121.27979.27979,0,0,0-.09661-.06125c-.14689.12275-.27328.22025-.3804.29369a1.12068,1.12068,0,0,1-.3011.15139.75182.75182,0,0,1-.2956.02552,1.9248,1.9248,0,0,1-.3691-.08253q-.2109-.06632-.5134-.1763c-.21679-.07682-.47139-.16921-.7616-.28149q-.4359-.16414-.9298-.35771c-.3294-.12924-.663-.25969-.99521-.39118s-.6495-.25736-.94959-.37587c-.2994-.1199-.565-.2225-.7974-.31324-.07061-.02837-.1483-.06151-.2359-.10147-.08731-.04057-.17521-.083-.26391-.12449q-.13185-.06462-.24211-.11764a3.09171,3.09171,0,0,1-.1933.24317c-.07.08391-.14709.1692-.2279.25882-.07678.0853-.15112.16783-.2268.24637-.07449.07994-.15049.15563-.2281.22483a2.51866,2.51866,0,0,1,.19159.26791c.07339.10995.142.22561.21029.34421.0675.11964.123.224.16731.31774q.12615.23721.3129.591c.12359.23755.26189.50148.4116.79318q.22668.43924.4688.92407c.16189.3237.324.65018.4836.98193.161.33046.3124.652.4575.96576a3.14584,3.14584,0,0,1,.17691.4526.96745.96745,0,0,1,.04479.36229,1.07555,1.07555,0,0,1-.10689.3648,3.77478,3.77478,0,0,1-.26439.46264Zm-1.09869-5.74948q.19725.07319.44019.17206c.1618.06349.3268.13209.4943.20069.1664.06973.3257.13608.4729.19871.1482.06151.2744.11592.37871.16047.10368.04481.1743.07509.20919.09074a.08972.08972,0,0,1,.01928.02838.03473.03473,0,0,1,.0003.03659c-.02267.03374-.0697.09464-.1434.18227-.07291.08927-.1738.20441-.30081.34516-.1114.12388-.20349.22622-.28029.309-.07568.08391-.1389.14827-.18941.19559a.05214.05214,0,0,1-.05669.00035.13133.13133,0,0,1-.043-.04395c-.072-.13183-.154-.27526-.2407-.43063-.08841-.15675-.1794-.31609-.27209-.48192-.09241-.16324-.184-.32518-.27222-.48453-.08949-.15813-.172-.307-.2469-.44386a.02451.02451,0,0,1,.01247-.01981l.01814-.01419Zm10.0116-4.77438c-.1576.14913-.2982.282-.4189.39663a1.79584,1.79584,0,0,1-.2968.23954.39073.39073,0,0,1-.23329.04394.57163.57163,0,0,1-.1933-.06375,1.54589,1.54589,0,0,1-.1341-.083c-.0893-.05978-.21659-.15191-.3804-.27526-.16382-.123-.3535-.26869-.5709-.43851q-.32536-.25042-.69991-.5468c-.24769-.19585-.5043-.39629-.76389-.60183q-.39212-.31-.7674-.60693c-.25082-.1981-.4878-.38331-.708-.55528a.12579.12579,0,0,1-.0383-.05667.10336.10336,0,0,1-.00794-.05216c.0337-.04931.07821-.10917.132-.18114.05391-.07232.1137-.15165.1783-.235.065-.08278.1313-.1647.1965-.2449.06661-.07906.129-.14939.18819-.21a.44648.44648,0,0,1,.22031-.13859.5415.5415,0,0,1,.30811.04109c.11.04222.21339.08443.3087.127.09521.04308.19669.09075.29869.146.10381.05441.21972.1205.3507.1987a.22631.22631,0,0,0,.08818-.06972,1.25539,1.25539,0,0,0,.1139-.14879,1.87843,1.87843,0,0,0,.1015-.16385.43289.43289,0,0,0,.04392-.11851q-.44087-.392-.8178-.78487-.37366-.39421-.67291-.75884a.15852.15852,0,0,0-.06239-.01981.10931.10931,0,0,0-.07769.01133,2.923,2.923,0,0,1-.26561.4924q-.19427.29975-.5258.72588l-2.4752,3.168q-.08669.11094-.21059.25087c-.08141.09187-.1724.186-.2713.27889a2.59121,2.59121,0,0,1-.31461.24715.11511.11511,0,0,0-.02183.08019.26867.26867,0,0,0,.00907.08478c.11679.10571.2435.22673.37991.36.1366.13322.2732.26929.4104.41039.13751.14143.267.27414.385.40286q.179.19088.3027.331a.22973.22973,0,0,0,.131-.03374,1.16144,1.16144,0,0,0,.1686-.11367,1.14744,1.14744,0,0,0,.14432-.135.18259.18259,0,0,0,.05748-.09835c-.123-.19075-.2281-.35805-.3098-.502-.083-.14256-.15591-.2795-.21909-.40667a1.17687,1.17687,0,0,1-.11-.3167.48417.48417,0,0,1,.00708-.2205.53371.53371,0,0,1,.08189-.16411c.0383-.055.08652-.11964.144-.1936.055-.07344.114-.14914.17521-.22734.06152-.07855.1207-.15138.1769-.21687.05579-.06548.10369-.1205.14231-.16073a.0718.0718,0,0,1,.0629-.01133.17115.17115,0,0,1,.0612.01981c.4842.37838.9562.74473,1.4117,1.10045q.68325.534,1.27951,1.012c.3949.318.7487.60892,1.0551.87276a1.38692,1.38692,0,0,1,.2344.25624.38482.38482,0,0,1,.06919.22872.7225.7225,0,0,1-.0794.273c-.0303.06661-.07991.16125-.1457.28262-.06828.12128-.1465.25935-.23582.41073a.20364.20364,0,0,0,.05329.09974.87269.87269,0,0,0,.1207.11878.79609.79609,0,0,0,.1423.09187.21066.21066,0,0,0,.1182.02889q.185-.24149.50261-.6712.31937-.432.7784-1.0245.4125-.52293.7469-.92752c.22311-.27042.4094-.49906.5604-.68937a.33248.33248,0,0,0-.06349-.10545,1.11931,1.11931,0,0,0-.11869-.12475.94443.94443,0,0,0-.131-.09974.1829.1829,0,0,0-.10009-.03685Zm1.537-5.625c.04451-.04369.09689-.0981.15362-.16584a3.10486,3.10486,0,0,0,.20021-.25934,2.82059,2.82059,0,0,0,.2497-.44,3.0461,3.0461,0,0,0,.17229-.47993,2.66971,2.66971,0,0,0,.08169-.48037,2.27383,2.27383,0,0,0-.04621-.675,2.0176,2.0176,0,0,0-.29339-.68228,2.35456,2.35456,0,0,0-.61911-.61792,2.152,2.152,0,0,0-.6438-.31523,1.85242,1.85242,0,0,0-.604-.07232,2.06394,2.06394,0,0,0-.5429.10122,1.96585,1.96585,0,0,0-.5371.29,2.94111,2.94111,0,0,0-.4167.38114,3.45091,3.45091,0,0,0-.284.3552c-.1514.21627-.2849.41047-.4009.57942-.11591.16869-.22419.32682-.3242.47622-.10009.14965-.20409.30139-.3099.45615q-.159.23214-.356.51506c-.12639.18028-.2512.352-.3736.5167-.1222.16445-.23389.31748-.3376.45528-.10349.13807-.18989.25485-.25912.35347a.39439.39439,0,0,0,.09839.123,1.34993,1.34993,0,0,0,.17.13781.65054.65054,0,0,0,.1633.08391c.08989-.09836.1732-.18737.2503-.26419a2.502,2.502,0,0,1,.2126-.197.59863.59863,0,0,1,.22249-.13382.36459.36459,0,0,1,.2251.01133,1.3512,1.3512,0,0,1,.3008.1545c.07279.04619.1851.12249.3415.22959s.3487.23979.5746.398c.22739.159.4816.337.7654.53583.2823.19758.5269.36869.73129.51419.2058.14654.3804.27128.5267.37578.148.10606.2755.19759.3815.27639.1086.07855.20809.15026.29511.216a1.80524,1.80524,0,0,1,.2152.18339.56464.56464,0,0,1,.13119.20641.39311.39311,0,0,1-.01077.25225c-.02806.08019-.0578.153-.08561.21575-.03.06289-.06009.12612-.0932.18677-.0318.06211-.06891.13149-.10891.20891a.37767.37767,0,0,0,.10151.10856,1.41363,1.41363,0,0,0,.182.12726.76991.76991,0,0,0,.16809.08019q.261-.37761.5272-.78271.2649-.40356.5318-.78938.287-.40524.6015-.82925c.20979-.28287.411-.56039.6061-.8353a.40865.40865,0,0,0-.09811-.14343,1.05345,1.05345,0,0,0-.169-.13919.47461.47461,0,0,0-.15809-.07111c-.10409.12128-.20271.23218-.2926.33054a3.118,3.118,0,0,1-.2854.2744.48317.48317,0,0,1-.2531.12448.49477.49477,0,0,1-.23621-.03,1.0477,1.0477,0,0,1-.2052-.10407c-.1057-.06921-.22712-.14966-.36621-.24464s-.28459-.19447-.4397-.303c-.155-.10606-.3087-.21376-.4629-.324-.15361-.1077-.29789-.20865-.43429-.30407-.13549-.09723-.25449-.18054-.3549-.25087q-.4728-.33076-.79511-.55676c-.21339-.14939-.392-.27439-.53349-.37587-.1414-.099-.261-.18512-.36021-.25683-.099-.06921-.1877-.13608-.2713-.197a.19739.19739,0,0,1-.06211-.08789.4047.4047,0,0,1-.02353-.07033.52275.52275,0,0,1,.034-.11168c.019-.04057.0383-.0782.05839-.11341.02154-.034.0374-.06012.0516-.08054a1.44688,1.44688,0,0,1,.61589-.52241,1.27392,1.27392,0,0,1,.7464-.07111,2.10182,2.10182,0,0,1,.81639.36627,1.83944,1.83944,0,0,1,.5686.58963,1.07649,1.07649,0,0,1,.13692.60546.87857.87857,0,0,1-.066.26445,1.23358,1.23358,0,0,1-.127.23132c-.05238.07543-.097.13547-.13209.17855-.036.04481-.05839.0737-.06832.08763a.26749.26749,0,0,0,.0326.06721.25446.25446,0,0,0,.0567.06575.53346.53346,0,0,0,.1451.05951,1.413,1.413,0,0,0,.21059.03971.5031.5031,0,0,0,.18739-.01419" transform="translate(-26.43038 -58.47709)"/><path id="c8bb25d9-94a1-4524-bc23-c6a115d02be3" data-name="path849" class="257aeb11-8178-4ced-8aaf-02d3b8961be2" d="M155.021,187.613c.0657-.0802.138-.16359.21569-.24776a2.9761,2.9761,0,0,1,.25279-.242.36727.36727,0,0,1,.18-.0975.3499.3499,0,0,1,.19559.0289,1.90788,1.90788,0,0,1,.2625.14057c.14459.087.3634.22448.65739.41532q.43965.28236,1.15051.745c.21829.1417.43349.28149.6438.41809s.4031.26159.5802.379c.1766.1148.32489.21341.44389.29049.11941.07967.19682.13236.23329.16073a1.54469,1.54469,0,0,1,.25659.22336.47605.47605,0,0,1,.11421.22509.52792.52792,0,0,1-.0275.26756c-.01757.05468-.03659.10857-.0555.16246-.01729.055-.03861.11194-.06271.17406-.02409.06176-.0536.13148-.08869.21375a.21189.21189,0,0,0,.0728.09525.96377.96377,0,0,0,.1387.09922c.05491.03114.10479.05666.1508.07742a.27711.27711,0,0,0,.1.02864c.05159-.08305.15341-.25.3036-.49906.14941-.24775.35429-.57354.6123-.97432q.3333-.51282.56181-.84725c.15049-.22163.2696-.398.36-.52639.0893-.127.1528-.218.18941-.27414a.20411.20411,0,0,0-.05589-.09351,1.13716,1.13716,0,0,0-.12019-.11679,1.06786,1.06786,0,0,0-.1406-.10008.24214.24214,0,0,0-.11449-.038c-.05981.06375-.1222.12838-.1868.19585-.06429.06773-.12671.1321-.18649.18936a1.72242,1.72242,0,0,1-.15559.13409.42227.42227,0,0,1-.214.09386.43428.43428,0,0,1-.20951-.03573,1.23822,1.23822,0,0,1-.22079-.12076q-.26745-.16285-.6361-.40174-.3729-.23811-.83461-.53937a.07719.07719,0,0,1-.02466-.02552.09862.09862,0,0,1-.0207-.03148.18653.18653,0,0,1,.02154-.06125c.01559-.03114.0468-.08616.09269-.16384.0485-.07795.12082-.19309.2183-.34664s.22989-.35753.3954-.61255c.0953-.14628.19021-.29248.2838-.43686.09379-.14455.18-.27353.25761-.3898.0777-.11591.1378-.20493.1817-.26557a.05425.05425,0,0,1,.04371-.02267.07922.07922,0,0,1,.04541.01134c.31261.20069.6001.3872.86281.55563.26311.17094.50689.33357.7302.49239a.7215.7215,0,0,1,.21972.22734.33026.33026,0,0,1,.0312.25087,2.71808,2.71808,0,0,1-.1004.28833c-.0425.10061-.0926.20952-.15021.32959a.27225.27225,0,0,0,.0726.09948.96145.96145,0,0,0,.136.09974.73949.73949,0,0,0,.15.07457.21144.21144,0,0,0,.11029.017c.06089-.09749.17059-.2769.3274-.536q.235-.38824.6321-1.005.41835-.63867.6763-1.01c.17209-.24689.2946-.42527.366-.53184a.19641.19641,0,0,0-.0595-.091.99576.99576,0,0,0-.12561-.11592,1.335,1.335,0,0,0-.13751-.1006.31537.31537,0,0,0-.102-.05044c-.14119.15736-.2571.28288-.3456.37388a1.58408,1.58408,0,0,1-.23721.20667.35046.35046,0,0,1-.1951.05813.53579.53579,0,0,1-.197-.04109,1.39954,1.39954,0,0,1-.18851-.093c-.1122-.066-.2429-.146-.38949-.237-.1482-.09152-.305-.19109-.47191-.29931-.16809-.10683-.3393-.21575-.5128-.32855q-.26027-.16882-.5074-.32942c-.199-.12924-.3804-.24715-.5468-.35286-.16529-.10744-.3212-.20831-.46889-.30441-.1471-.09326-.2905-.18876-.434-.28426q-.213-.14118-.44189-.30053a2.251,2.251,0,0,1-.2384-.18452.40982.40982,0,0,1-.11559-.16635.34058.34058,0,0,1-.00311-.19589.79815.79815,0,0,1,.03919-.17293c.02212-.06574.04981-.13664.08241-.21146.03261-.07457.06951-.14884.10689-.22055a.23559.23559,0,0,0-.06661-.0981.92435.92435,0,0,0-.27921-.1814.19056.19056,0,0,0-.1165-.01986c-.05641.08672-.11231.176-.1664.26644-.053.08871-.11449.19019-.1811.30018-.0678.11112-.148.24153-.24179.39291q-.1404.22748-.34561.54257c-.127.1962-.237.36186-.3314.4994-.0946.13919-.178.26082-.25339.36973-.074.10684-.14769.20978-.216.31151-.07.10061-.14451.212-.22281.33245a.18715.18715,0,0,0,.059.0955,1.18911,1.18911,0,0,0,.1358.11081.99289.99289,0,0,0,.14851.08729.18367.18367,0,0,0,.10661.02552c.11679-.14092.2168-.25658.2973-.34559a1.05549,1.05549,0,0,1,.23451-.19932.24365.24365,0,0,1,.15049-.04844.4708.4708,0,0,1,.1618.03175,1.13359,1.13359,0,0,1,.1472.0686q.4167.26016.7954.50494.37965.24316.7333.47388a.057.057,0,0,1,.01729.04334.17457.17457,0,0,1-.00311.06151,1.152,1.152,0,0,1-.0893.16557c-.04589.07768-.1154.188-.20551.33028-.09158.14118-.2126.32743-.3617.557q-.2283.35164-.37019.57c-.09471.146-.16951.25735-.22309.33677q-.07828.12029-.12079.17517a.7329.7329,0,0,1-.06832.0808.11374.11374,0,0,1-.04311.00571.3536.3536,0,0,1-.06551-.00848c-.26949-.17517-.5249-.34109-.763-.4981-.23791-.15424-.45729-.3013-.65649-.43773a1.34652,1.34652,0,0,1-.19451-.14654.36727.36727,0,0,1-.11449-.36877,1.26864,1.26864,0,0,1,.047-.157c.02409-.06151.0525-.13011.0828-.20156.03231-.07033.0646-.13833.09921-.20494a.17692.17692,0,0,0-.06429-.08763,1.11348,1.11348,0,0,0-.1347-.10545,1.5756,1.5756,0,0,0-.1497-.0859.22864.22864,0,0,0-.10769-.03114c-.066.10545-.17711.28677-.3316.54248s-.3646.58928-.6279.99837c-.148.22794-.27471.41956-.38241.578q-.16111.23772-.27209.39853c-.07509.10857-.1406.19845-.19219.27466q-.07994.11225-.13949.20381a.21515.21515,0,0,0,.06381.08478,1.18516,1.18516,0,0,0,.1383.11055,1.35678,1.35678,0,0,0,.14879.09438.19269.19269,0,0,0,.0993.02976Zm10.87849-10.61781q.16531.28234.28341.48357a2.33107,2.33107,0,0,1,.18372.37963,1.22218,1.22218,0,0,1,.0726.292.52877.52877,0,0,1-.019.19983.81542.81542,0,0,1-.0765.16553c-.0686.12358-.14661.2645-.23642.42272q-.13484.23681-.28068.4943-.14955.25854-.2942.50688c-.0987.1664-.18989.31921-.2755.45779-.08478.14118-.15848.258-.22169.352a1.32376,1.32376,0,0,1-.1361.18283.06584.06584,0,0,1-.04309.002.07135.07135,0,0,1-.043-.03685c-.03149-.08534-.06892-.21146-.1114-.37963-.04371-.16609-.0896-.35567-.13949-.56969q-.07485-.32019-.15191-.66191c-.04961-.22647-.0976-.44369-.1455-.6497-.045-.20667-.08561-.38669-.1218-.53812-.0338-.1522-.0618-.26-.08142-.3231a.20607.20607,0,0,0-.0519-.05272c-.02665-.02267-.05471-.04365-.083-.0635a.30322.30322,0,0,0-.06951-.03655c-.1321.04507-.3039.09438-.5111.148-.208.05558-.4331.11025-.6763.16583-.24152.05641-.48191.10714-.7189.15533-.2372.04563-.4527.08616-.6423.11678-.19159.0295-.3399.04792-.44531.053a.07379.07379,0,0,1-.0394-.01985c-.01247-.00853-.01644-.017-.01531-.02267.00907-.01985.03449-.07029.0765-.15l.1596-.288c.06151-.11479.1309-.23612.2052-.36562.0714-.129.1451-.25454.21571-.3773.07291-.12387.1372-.23274.19619-.3269.05839-.09694.1057-.167.14029-.21316a.61733.61733,0,0,1,.2132-.195.4759.4759,0,0,1,.3208-.0346c.08929.017.20639.0465.34959.08871.14281.04222.307.0978.4932.16839.02834-.00286.05839-.02552.0904-.07258a.9189.9189,0,0,0,.09328-.15619,1.0733,1.0733,0,0,0,.06429-.16328c.015-.051.019-.08162.00907-.0958-.3005-.21233-.567-.41922-.7991-.61571-.2325-.19672-.44051-.3863-.6214-.5655a.06048.06048,0,0,0-.04791-.017.0514.0514,0,0,0-.0445.017c-.03569.08759-.081.18936-.1372.30273-.0572.1151-.11991.23556-.18879.364-.06769.12643-.13909.25113-.212.3747l-1.60949,2.90329q-.2046.3695-.3475.6151c-.09439.16242-.17271.2917-.2325.38777-.05811.09693-.10491.16951-.13489.216a.22671.22671,0,0,0,.0536.08477,1.00963,1.00963,0,0,0,.108.10147,1.09184,1.09184,0,0,0,.12209.08733.3162.3162,0,0,0,.0936.04083q.18918-.06889.4975-.15108c.2069-.05359.4391-.10887.69421-.1667.25709-.0567.51979-.11254.79449-.16583.27411-.05614.5395-.10826.8002-.15619.2583-.04732.4967-.09014.7101-.12755q.32233-.05444.5281-.08815c.13811-.01986.22059-.03088.25-.032a.05725.05725,0,0,1,.03462.00852.05139.05139,0,0,1,.0255.02552,3.58454,3.58454,0,0,1,.1389.40091c.05621.19079.1188.41381.18431.66671.0646.25485.12869.51787.1899.79049.05949.27155.1137.52934.1582.77285.0445.24378.0754.44871.09071.61481a.76419.76419,0,0,0,.0864.13581c.05048.06722.10748.14256.1758.22423.06579.08252.1304.15536.18851.2205a.76741.76741,0,0,0,.131.12275.097.097,0,0,0,.0572.00848.06.06,0,0,0,.0411-.01981l.4153-.82034,1.906-3.34317c.09351-.16921.17351-.3132.235-.43232a2.20321,2.20321,0,0,0,.13581-.30779.34749.34749,0,0,0-.001-.11224.3544.3544,0,0,0-.04481-.13664,1.24593,1.24593,0,0,0-.1715-.25485c-.08869-.10826-.19419-.23019-.3198-.3632-.12439-.13464-.25421-.26786-.388-.4013-.13241-.1324-.25739-.25429-.37221-.35948-.1154-.1077-.20891-.18793-.27839-.24408a.13913.13913,0,0,0-.09811.03119,1.19352,1.19352,0,0,0-.14309.1,1.547,1.547,0,0,0-.1304.12475.2339.2339,0,0,0-.0598.0958" transform="translate(-26.43038 -58.47709)"/><g id="4ec35466-1625-41a0-b4d1-d943e08e184f" data-name="g851"><path id="3db80cd3-e2b7-44cb-bda2-4157f24f78e4" data-name="path853" class="62c9b4f7-c5bf-4b9c-b6c5-23d41ba23117" d="M63.49164,154.95463c.59773.885,1.35809,1.89754,4.51945,4.13767,3.371,3.51251,17.73045,9.1233,18.03174,10.44259.48958,2.14246-1.14629,3.88317-3.52546,4.652-.74609.24117-1.1565,2.47916-.25935,3.448.78151.84391,2.24135.2599,2.23431,1.66335-.00883,1.755-1.67591.98729-2.50156,2.74707-.82552,1.75946.47527,3.35388-.45223,4.1114-1.09125.89174-2.50406.0915-3.92959-.04625-1.1815-.11428-3.24708.09667-4.05525.76879a5.21676,5.21676,0,0,0-1.356,5.22932c.50032,1.13869,4.0291,2.13736,4.56766.01734.45019-1.77175-2.96894-.50979-2.69433-1.558.554-2.11436,3.47808-1.89381,4.858-1.89381a2.83526,2.83526,0,0,1,2.04125,1.54739c.27358.537.51333,2.82592-.16552,3.20542s-1.02074-1.663-2.086-.88159-.13492,2.87132,1.16621,3.259c1.30137.38785,3.09424.1786,3.59424-.78084.49976-.95988-.37641-3.82711-.17343-5.78159a5.23335,5.23335,0,0,1,1.133-3.49119c1.196-1.451,1.94373-.32963,2.91515.14632.3096.15137,3.61979,1.9213,5.64834-1.25715.9507-1.49,1.32087-3.4379,2.28841-4.39427a2.52472,2.52472,0,0,1,3.47721-.2489c.37987,2.425.7935,3.27088-2.02424,8.0557a67.258,67.258,0,0,1-3.939,5.8309,9.53313,9.53313,0,0,0-.43139,1.00265,6.93779,6.93779,0,0,1-.5749.85968c1.17868.0573,3.42137-1.43286,5.14631-2.75069,1.52392-1.175,2.73146-2.23515,2.99022-2.09167.25852.14318-.60378,2.77935-2.55909,5.7019-1.43742,2.20617-2.99,4.72784-3.85252,5.358-.2875.22934-.02864.40114-.20137.68769-.31626.4298-.74741.57836-1.09243.9222,5.52019-.40114,10.17245-6.71927,10.43119-6.3752.54626-.34409,2.75953,3.68562,4.71482,5.80595a14.81372,14.81372,0,0,0,2.94382-4.1882c.86288-1.834.92072-2.49019,1.9151-2.23908,1.82209.981,1.24207,1.45961,2.24836,2.49111,1.20754,1.28914,2.7026,2.378,3.134,2.8652,1.20729.60184,5.393,1.93667,5.68036,1.478a3.54043,3.54043,0,0,1-.94877-1.43233c-.74753-1.20354-1.95507-2.86551-2.99-4.32681-2.30033-3.18043-5.03654-6.06559-4.05912-6.55277,1.78236,1.77637,5.62957,3.9276,8.13056,3.9276-.20127-.34384.61487-.52667.09725-1.09952-.25852-.258.144-.258-.68992-1.175-.91992-1.00286-5.50717-5.29847-6.05368-6.33-2.38622-4.61314-3.024-6.11438-1.87537-6.75016,1.83452-1.016,4.37095-.58142,4.93907,2.87972.25026,1.52414.78714,2.58861,2.18837,3.09286a8.47418,8.47418,0,0,0,3.52822.837c.99779-.07962,1.976-.95245,2.90633-.76675,2.20513.44049,2.4579,1.05339,2.649,1.93748a3.29876,3.29876,0,0,1,.01582,1.798c-.14056.62475-1.03289,1.01909-.77432,3.132a3.47651,3.47651,0,0,0,3.081,2.61242,3.825,3.825,0,0,0,2.95389-1.74581c.224-.77554.17406-2.85616-.62813-2.86248-.8022-.00585-.65616,2.51416-2.23056,2.32213-1.57439-.19155-.881-3.22347-.39688-3.42356a26.02745,26.02745,0,0,0,2.266-1.7958,2.199,2.199,0,0,1,2.113.20384c.90361.53653,1.2458.67777,1.37641,1.472s-.65077,2.23031,1.173,2.52453c1.82353.29422,1.88368-3.28674,1.40054-4.62478-.48265-1.33789-2.605-2.11773-4.53337-1.93862-1.92872.17892-3.43926.94365-4.27292.872-.834-.07175-1.02928-1.18378-1.4035-1.48487-.37387-.301-.01494-1.25285.27948-2.27306.2943-1.02046-.346-1.85471-1.77159-2.92587-1.351-.91106-1.592-2.34856-.41362-2.52884,5.19116.87564-1.98371-7.39609-2.52985-8.9294-.6614-1.80515,10.72422-1.573,23.77743-17.04533-2.21408-.02866-5.82573.33935-6.54425-.033,6.584-4.01132,16.49188-12.12976,15.80165-13.47623-.46-.88831-6.93918,3.21254-11.07945,4.9113,2.15634-2.63614,15.78353-12.94633,15.78353-18.30436-1.5812.659-13.95432,11.10217-14.85715,9.241,7.52766-7.04271,18.47976-17.65991,19.11252-22.3306-.74326,1.14409-15.60414,16.10281-19.61172,14.3595-.6322-1.32062,9.74525-7.94434,11.499-10.63756,3.45037-4.32684,11.12517-11.19175,10.23389-16.29246-10.03343,10.95284-20.19588,18.74779-31.13226,24.39584-3.82389,1.48982-16.718,7.4259-17.94632,9.14939-1.22828,1.72368-2.16706,4.07729-.51672,4.94783,2.55885,1.232,2.45.30959,3.27194,1.08569.82179.7761-1.08168,2.61443-3.40916,2.14977-3.99571-.79791-5.39884-2.20991-6.87806-5.413-.6896-1.49332-.19866-5.21575-.22413-6.02313a6.30272,6.30272,0,0,1,1.57544-4.12019c.7189.71635,1.43777,2.12033,2.50134,2.49284l-.40854-3.98378a4.30111,4.30111,0,0,1,1.444-3.42036,8.6478,8.6478,0,0,0,3.04718,3.13491c.46013-4.41268,1.52392-8.0275,3.91045-9.489,2.12738-1.31781,5.79031-.03979,9.09655-2.18859a9.80626,9.80626,0,0,1,4.7517-1.1214c2.05514-.06033,3.70492,1.41361,6.99624,4.0944a12.863,12.863,0,0,0-.08626-4.48619,4.9518,4.9518,0,0,0-2.77672-3.17056c-1.55255-.74467-1.43235-.44129-5.57263-1.15764-2.15634-.34384-3.4215-3.3812-5.43406-4.06884a14.53472,14.53472,0,0,0-7.67641-.31518c-3.10511.7452-6.37742,4.81035-8.80268,6.0925-2.425,1.28244-2.28252,1.73306-1.44627,2.02108a26.79228,26.79228,0,0,0,2.59882.73564c-1.40881,1.43264-3.28927,2.64722-4.91024,2.72217-1.6208.07443-3.34679.7744-3.60563,2.03493,1.06386,0,1.64437,1.02847,2.36321,1.40083-.68991.71635-1.16269.8104-1.64977,1.35643l-1.00908,1.13155c-.53768.603,1.00888,1.12854,1.72777,1.84508-1.294,1.404-2.61646,3.59894-3.56548,3.82823-1.17868.28632-2.44089-2.28817-4.9711-3.94982a4.56207,4.56207,0,0,1,2.395-.52636c0-.71634-1.46945-1.04143-2.69039-1.90464a15.9481,15.9481,0,0,1-2.55973-2.27962l3.17109-.61108-.46-.83118c-.40534-.73282-2.69679-.70581-3.96222-.95449a8.59909,8.59909,0,0,1-5.68092-2.70668,4.58166,4.58166,0,0,1,2.7831-.99791c1.28689-.36648,1.35977-.84358.5691-1.57542-3.99571-1.92961-8.03783-4.524-9.7579-4.63921a21.98,21.98,0,0,0-6.52049.02867c-3.04613.52387-5.88728,3.03765-8.75684,4.41418-5.15075,2.47093-7.60835,7.0755-5.53829,10.31354,0-3.20938,4.48923-4.84013,6.38273-5.10037a11.67962,11.67962,0,0,1,3.96763.63051,15.081,15.081,0,0,0,4.65731,1.53034c1.49925.23362,2.39843-.55788,4.14594.12441,3.03275,1.18436,2.76438,3.51926,4.01959,5.19311,1.25544,1.67384,1.4578,1.89662,1.76253,3.04333.75092-.74836.74266-2.21676,1.85444-2.74.66015-.31047,1.3632,1.0017,1.72745,2.87035a13.77747,13.77747,0,0,1,.14962,4.27632c1.06694,0,1.882-.902,2.3996-1.29235.87983-.66272,1.71749-.57916,2.186,2.59174,1.0897,7.37343-.68855,12.25646-8.94687,11.83465a1.40553,1.40553,0,0,1-.12759-2.76527c2.43377-.63124,2.08234-.71654,2.456-1.318.75962-2.42963-1.5254-4.93457-2.65644-5.44139-10.13123-4.54171-20.01423-7.65072-24.09288-11.20259-11.41428-5.98849-10.62375-7.26-17.38036-12.01662,0,.34384-6.736-7.34793-6.736-7.00384l1.74135,4.924c.66128,1.71932,1.38675,2.46335,2.96794,4.52641,2.789,4.24066,14.63711,14.72544,15.72966,15.78558-4.54845-.23959-16.51884-11.28186-18.65107-13.97086.40275,6.13166,13.10368,17.99035,17.7324,22.63213-2.73146-.745-12.20086-8.28517-13.60966-9.71781.68991,1.43264,2.56526,5.35667,4.1465,7.04732l2.73112,3.49531,7.418,6.70508c-2.15633,1.06015-3.35905-.92747-5.80288-2.274a15.06851,15.06851,0,0,0-2.3-1.77333c.37388,3.61015,5.14149,6.48278,7.81509,9.94994.34526,0,3.5365,2.063,3.5365,2.43551-2.01349.04987-2.31446.20914-4.19154-.51508a10.09276,10.09276,0,0,0,3.26607,4.60061Z" transform="translate(-26.43038 -58.47709)"/></g><path id="3146bede-18e3-4b73-813f-8ac04616c741" data-name="path855" class="5d75cc51-24a4-414b-9cf9-9c8e3800862e" d="M120.26,146.19852v22.88521H93.89583V146.20964c4.0714-.01134,21.2238-.01134,26.36421-.01134" transform="translate(-26.43038 -58.47709)"/><path id="108da7c9-a8bf-427a-b412-00b655081d91" data-name="path857" class="1a11c8a3-6735-41cd-925f-df971de0b3e5" d="M96.05184,148.00729h9.2291v7.67909h-9.2291Z" transform="translate(-26.43038 -58.47709)"/><path id="370b2285-c5b4-4817-acb4-6159396530a9" data-name="path859" class="1a11c8a3-6735-41cd-925f-df971de0b3e5" d="M108.61244,148.00729h9.2291v7.67909h-9.2291Z" transform="translate(-26.43038 -58.47709)"/><path id="5c4023e5-40bc-4f3d-8852-efaf9916df40" data-name="path861" class="1a11c8a3-6735-41cd-925f-df971de0b3e5" d="M96.05184,159.00261h9.2291v7.6791h-9.2291Z" transform="translate(-26.43038 -58.47709)"/><path id="0663a420-a5f2-42d5-84f3-761ddfb207c9" data-name="path863" class="1a11c8a3-6735-41cd-925f-df971de0b3e5" d="M108.61244,159.00261h9.2291v7.6791h-9.2291Z" transform="translate(-26.43038 -58.47709)"/><g id="27029501-94d8-41a2-a027-45a30ba6daaa" data-name="g865"><path id="a3fa84c1-2edf-4e67-8bac-8c8ac606e1f4" data-name="path867" class="4bfaf4a0-fab1-4d86-9c71-62d2557136e3" d="M84.34516,107.96611c-1.06379,1.66933-4.57685,1.66933-5.64063,0A5.30373,5.30373,0,0,1,84.34516,107.96611Z" transform="translate(-26.43038 -58.47709)"/></g><g id="db999230-3120-4aa2-b0e4-91a5a371be83" data-name="g869"><path id="00de0cb9-3ecc-4a22-b54d-3a189059a2d6" data-name="path871" class="4bfaf4a0-fab1-4d86-9c71-62d2557136e3" d="M131.81146,107.56017c-1.767.78478-4.72836.78478-5.92246-.78479C127.08308,105.14045,132.95778,104.35567,131.81146,107.56017Z" transform="translate(-26.43038 -58.47709)"/></g></svg>