<svg version="1" xmlns="http://www.w3.org/2000/svg" width="2718.667" height="2718.667" viewBox="0 0 2039.000000 2039.000000"><path d="M959.5 53c-128.6 5.7-244.6 20.8-363 47.1-141.1 31.5-278 79.1-394.6 137.4l-20.6 10.3-.6 61.4c-.4 33.7-1.4 102.9-2.3 153.8-3.7 207.9-1.5 433.1 4.7 479.5 15 112.9 49.3 234 97.2 343.6 94.2 215.4 245.8 407.8 431.2 547.1 96.7 72.7 201 128.2 300.1 159.7 8.8 2.8 17 5.1 18.3 5.1 1.2 0 11.9-4.3 23.8-9.6 271.1-120.3 481-297.5 620.6-524.1 91.6-148.5 151.9-317.9 179.1-502.8 2.2-15.2 2.6-22.6 3.7-69.5 2.1-91 .8-174-5.6-382-3.9-128.1-5.3-177.4-6.3-229.8l-.8-37.4-2.4-1.8c-4.4-3.3-64.7-33.5-88-44-162.1-73.5-342.8-119.5-539-137.5-16.9-1.5-46.9-3.7-78-5.6-22.1-1.3-152.2-2-177.5-.9zm141.3 93.1l.3 4.5 6.5 1.1c3.5.6 9.3 2.5 12.9 4.2 27.1 12.6 32.7 52 10.6 74.2-6.8 6.7-13.5 10.2-23.5 12l-6.5 1.2-.3 6.1-.3 6.1h-22l-.3-6.1-.3-6.1-6.7-1.2c-23.5-4.3-38.9-25.1-36.8-49.6 1.9-22.6 16.5-38.1 38.9-41.1l4.7-.7v-4.2c0-2.3.3-4.5.7-4.9.4-.3 5.4-.5 11.2-.4l10.6.3.3 4.6zm-128.5 52.7c1.6 29.4 2.7 53.5 2.5 53.7-.2.2-5 .5-10.8.7l-10.5.3-.6-7c-.4-3.9-1-14.4-1.4-23.4l-.7-16.3-8.7.6c-4.7.3-14.2.8-21 1.2l-12.4.7.7 10.6c.3 5.8.9 16.3 1.2 23.2l.7 12.6-10.7.8c-5.9.4-10.9.5-11.1.3-.8-.7-5.8-105.8-5.1-106.5.4-.5 5.4-1 11-1.1l10.3-.4.7 14.9c1 23.4 1.5 27.4 3.5 26.9.9-.3 9.8-.8 19.7-1.2 10-.3 18.6-.9 19.1-1.3.6-.3.6-5.6.2-13.1-.4-6.9-.8-16.2-.8-20.7l-.1-8.2 7.8-.4c4.2-.2 9.1-.3 10.7-.3l3 .1 2.8 53.3zm229.4-51.3c10.6.8 21.4 2 24.2 2.6 18 3.8 27.3 23 21.1 43.2-2.6 8.2-8.8 15.4-16.2 18.8-5.1 2.3-6.2 2.4-25 2.2l-19.8-.1-.1 4.1c0 2.3-.6 11.2-1.2 19.7l-1.2 15.5-10-.4c-5.5-.1-10.4-.7-11-1.2-.8-.8 4.4-86.9 6.2-102.1l.6-4.8 6.6.5c3.6.3 15.2 1.2 25.8 2zm-337.7 6c0 .2-7.9 10.6-17.6 23L828.8 199l3.4 4.3c1.9 2.3 12.4 15.2 23.2 28.7 10.9 13.5 20.5 25.2 21.3 26.1 1.3 1.5.3 1.8-10.4 2.8-6.5.7-12.8 1.4-14 1.7-2.3.4-4.4-2.1-31-38.4l-6.1-8.3-7.6 9.7c-4.2 5.3-7.6 10.2-7.6 10.8 0 .6.7 6.9 1.5 14.1 2.2 19.2 3.2 17.1-8.7 18.3-5.7.5-10.6.7-11 .4-.6-.7-11.9-105.4-11.4-105.9.5-.6 20.8-2.5 21.2-2 .3.3 1.6 10.5 2.9 22.7 1.3 12.2 2.6 22.4 2.8 22.6.1.2 8.7-11.1 19.1-25l18.7-25.4 11.7-1.1c6.4-.7 12.4-1.4 13.2-1.5 2.5-.6 4-.6 4-.1zm469.6 7c13.1 4.4 22.7 12.4 28.5 23.7 7.6 14.9 6.6 40.5-2.2 58.6-10.7 22-37.9 31.3-64.5 22.2-16.5-5.7-27.7-18.3-31.4-35.1-1.6-7.2-.8-26.2 1.4-34.4 3.8-13.9 12.4-25.8 23.3-32.2 11.7-6.9 29.5-8 44.9-2.8zm-586.1 7.7c.9 4.3 14.6 104 14.3 104.3-.6.6-20.7 2.9-21.2 2.4S726 174.5 726 171.3c0-1.8.7-2.3 4.3-2.8 3.3-.4 10.4-1.5 15.9-2.4.4 0 1 .9 1.3 2.1zm650.3 2.2c5.6 1.3 10.4 2.5 10.6 2.7.2.2 3.6 10.3 7.6 22.4 4 12.1 7.5 22.3 7.9 22.7.5.5 19.7-20 30.2-32.2l2.6-3.1 11.8 2.6c6.6 1.4 12.1 2.7 12.3 3 .2.2-11.1 12.1-25.2 26.4-14 14.3-25.8 27-26.1 28.3-.3 1.3-2.3 11.1-4.6 21.8-2.3 10.7-4.2 19.6-4.3 19.7-.2.2-5.1-.7-10.9-1.9-8.8-1.7-10.7-2.4-10.3-3.7 2.2-7.5 8.7-41.2 8.3-43.6-.2-1.7-5.8-17.5-12.4-35.3-11.1-29.6-11.9-32.2-9.9-32.2 1.1.1 6.7 1.1 12.4 2.4zm-695.3 5.8c.9 4 16.4 103.2 16.1 103.5-.1.1-5 1-10.9 2-9.9 1.6-10.8 1.6-11.9.1-2.6-3.4-51.3-59.7-51.4-59.5-.1.1 2.2 15.3 5.1 33.7 3 18.4 5.2 33.6 5.1 33.8-1 .9-18.9 3.3-19.5 2.6-.8-.9-17.4-104.5-16.8-105 .5-.6 20.7-3.7 21-3.3 4.6 5.7 53 61.9 53.2 61.7.2-.2-2.1-15.6-5.1-34.2-3-18.7-5.2-34.1-5-34.3.4-.5 14.8-3 17.8-3.2 1.1-.1 2 .8 2.3 2.1zm818 21.7c30.4 7.8 33.8 9.1 40.1 15.6 6.6 6.7 8.8 12.9 8.1 22.9-1.2 17.6-10.9 29.6-26.1 32.5-5.9 1.1-14.4 0-30.1-3.8l-11.5-2.8-1 3.6c-.5 2-2.6 10.3-4.6 18.6-2 8.2-4 15.4-4.4 15.8-.6.7-19.5-3.4-20.5-4.5-.3-.3 23.8-99.4 25-102.6.2-.6.8-1.2 1.2-1.2.4 0 11.2 2.7 23.8 5.9zm-947.8 5.6c16.6 4.8 30.2 21.8 34.7 43.7 7.9 38.3-14.8 65.8-54.4 65.8-27.2 0-47.2-23.2-48.7-56.5-.6-12.8.6-19.9 4.8-28.3 10-20.2 39.3-31.5 63.6-24.7zm-96.9 27.1c1.3 4.8 2.2 8.7 2 8.9-.2.1-12.4 3.4-27.3 7.4-14.8 4-27.2 7.4-27.4 7.7-.4.4 4.7 21.5 5.3 22.1.1.2 11-2.6 24.2-6.1 13.1-3.6 24.8-6.6 25.9-6.8 1.7-.3 2.3.9 4.2 8.2 1.2 4.6 2.1 8.6 1.9 8.7-.2.2-11.8 3.4-25.7 7.2-14 3.8-25.3 7.3-25.3 7.7.9 6.1 7.1 26.4 8.1 26.4.6 0 12.8-3.1 27-6.9 14.2-3.8 26.7-7.1 27.7-7.3 1.7-.3 2.3 1 4.3 8.1 1.3 4.6 2.2 8.5 2 8.8-.7.6-78.1 21.3-78.4 20.9-.5-.5-27.3-100.8-27.3-102.2 0-.8 1-1.6 2.3-1.9 1.2-.3 17.7-4.8 36.7-10 19-5.1 35.2-9.4 36-9.4 1.1-.1 2.2 2.4 3.8 8.5zm1152.2-.3l10.5 3.3 4.7 55c2.6 30.2 4.7 56.1 4.7 57.6l.1 2.6-7.7-2.4c-4.3-1.3-9.4-2.9-11.5-3.4l-3.6-1-.6-11.8c-.4-6.4-1-12.4-1.5-13.2-.7-1.3-35.5-12.8-39.2-12.9-1-.1-4.8 4.1-8.9 9.6-4 5.4-7.4 9.9-7.5 10.1-.6.7-21.5-6.2-21.5-7 0-1.2 70-89.8 70.8-89.8.4 0 5.4 1.5 11.2 3.3zM1130.5 318c143.9 6.8 267.6 24.3 391 55.1 97.9 24.5 196.3 59 275.1 96.4l13.1 6.2.7 29.9c.4 16.5 1.4 57.8 2.2 91.9 2.2 91.3 2.9 222.1 1.5 277-2 77.8-2.7 89.4-6.1 109.8-38.6 228.7-142.4 450-292.7 624.5-30.1 34.9-77.5 83.4-109.3 111.6-107 95.2-224.3 167.6-357.4 220.8-11 4.4-20.7 8-21.5 8-5.2.4-57.7-16.7-83.9-27.1-56.8-22.7-112.9-52.4-168-88.8-163-107.8-307.9-266.4-408.9-447.3-14.5-25.9-39.2-75.5-50.8-101.5-39.2-88.9-66.5-178.1-81.5-266.8-3.6-21.6-4-26.1-5.9-65.7-2.3-46.6-4.5-103.5-6.2-154.5-1.3-41-2.4-275.7-1.4-299.7l.7-17.6 20-8.7c128.6-56.1 279.6-99.6 435.3-125.4 103.2-17.1 197.6-26.1 311-29.5 20.4-.6 121.8.3 143 1.4z"/><path d="M1071.5 171.4c-4.6 2-9.4 6.4-11.8 11-1.8 3.4-2.2 5.7-2.2 14.1 0 8.4.4 10.7 2.2 14 3.8 7.1 10.9 12.5 16.4 12.5 1.8 0 1.9-1 1.9-26.5 0-29.4.3-28.1-6.5-25.1zM1101 196.5c0 26 0 26.5 2 26.5 3 0 9.1-3.4 12.1-6.7 4.3-4.5 6-9 6.6-16.7 1-12.9-4.1-23.6-13.1-27.7-8.1-3.7-7.6-5.2-7.6 24.6zM1189.6 167.7c-.3 1.5-.8 8.2-1.2 14.9l-.6 12.1 4.7.6c10 1.4 22.4.8 26.3-1.2 5.3-2.7 7.6-7.4 7-14-.9-9-5.8-12.5-19.3-13.5-4.4-.4-9.9-.9-12.2-1.2-3.9-.5-4.2-.3-4.7 2.3zM1306 177.9c-6.9 2.5-14 9.8-16.9 17.5-4.7 12.6-4.8 29.4-.2 38.4 5.3 10.5 13.1 15.2 25 15.2 16.5-.1 26.2-9.6 29.8-29.4 2.6-14.4.4-26.6-6.1-34.3-6.5-7.7-21.1-11.1-31.6-7.4zM1512.5 216.3c-1.6 4.7-6.5 26.2-6.2 27.1.6 1.6 18.5 5.8 25.1 5.8 8.9.1 14.6-5.5 14.6-14.2 0-8.8-5.1-12.7-22.2-17.1-7.7-1.9-11-2.4-11.3-1.6zM544.7 222.4c-9 3.3-15 9.8-17.4 18.8-1.7 6.8-1.7 12.2.3 21.6 3 14.6 8.6 23.1 18.7 28.4 6.3 3.3 17.4 3.1 24.2-.4 11-5.8 15.4-13.6 15.5-27.3 0-19.9-7.9-35.8-20.5-41.1-4.3-1.8-15.7-1.8-20.8 0zm28.8 31.1c1 4.7 1.6 8.7 1.4 8.9-.5.5-33.3 7.6-33.6 7.3-.1-.2-1.1-4.2-2.1-9l-2-8.7 2.2-.5c10-2.4 28.5-6.3 30.2-6.4 1.9-.1 2.4.9 3.9 8.4zM1607.9 270.2c-6.3 8.4-11.9 15.8-12.2 16.5-.7 1 7.6 4 24.6 9 2 .5 2 3.1-.1-30.5l-.7-10.3-11.6 15.3zM1671 477.6c-24.1 26.5-75.7 76.1-107 103-71.9 61.7-162 121-224 147.3-45.1 19.2-120.7 55.9-145.6 70.6-18.5 11-24 15.7-29.9 25.6-12 20.1-13 37.4-2.6 44.5 5.7 3.9 18.7 8.4 25.8 9.1 5.2.5 7.3 1.2 9.6 3.3 3.6 3.2 3.3 6.1-1.2 11.3-7.7 8.7-22.2 11.7-38.1 7.9-31-7.4-45.6-18.2-59.8-44.2-5.8-10.6-7.2-15.1-8.2-26.5-1.2-13.6 1.2-55.9 3.5-63.5 2.6-8.2 10.5-23 12.4-23 .4 0 2.5 2.4 4.6 5.2 8.5 11.3 17.7 19.8 21.4 19.8 1.5 0 1.4-2.2-.8-23.8-2-19.5-2.2-24.7-1.3-29.1 1.4-6.6 4.2-12.5 8.8-18.5l3.5-4.6 4.6 6.2c6.1 8.3 17.8 19.8 23.7 23.3 2.6 1.5 4.8 2.6 5 2.4.1-.2 1-6 2-12.9 6.1-44.6 18-72.3 36.4-84.7 3.5-2.4 8.6-4.9 11.4-5.8 4.8-1.4 9-1.9 38.4-4.5 18.8-1.7 26.8-4 43.9-12.5 8.6-4.3 18.2-8.3 22.6-9.4 11.4-2.9 30.2-4.5 37.5-3.2 12.3 2.2 27.3 11.5 53.6 33.3 5.9 4.8 11.1 8.8 11.6 8.8 1.5 0 2.2-8.2 2.2-24.1 0-17.1-.9-22.6-5.6-32.7-5.9-13-20-24.6-35.9-29.6-2.7-.9-15.6-3.1-28.5-5.1-30.3-4.5-30-4.4-49.1-23.5-16.3-16.3-21.4-20.2-30.6-23-14.9-4.6-22-5.5-42.8-5.5-39.4.1-51.6 5.5-93.5 41.4-17.9 15.4-24.6 20.3-36.7 27.3-10.6 6-14.8 9.1-17 12.4-3.5 5.4 1.2 8.6 19.6 13.5 11.3 3 10.6 2.6 8.5 5.1-3.3 3.7-17.6 13.9-24.4 17.3-7.9 4-15.2 6.1-24 7-20 2-32.8 9.4-36.4 21.2-.6 1.9-.4 2.3 1.5 2.3 3.5 0 9.8 3.5 16.1 8.9l5.7 4.9-2.2 1.9c-1.2 1.1-4.4 3.5-7 5.3-5.5 3.9-18.7 18.4-18.7 20.6 0 3.1 2.2 5.5 9.5 10.4 4 2.7 7.6 5.4 8 6 .8 1.3-21.8 29.3-28 34.8-5.3 4.7-9.3 5.4-13.5 2.6-1.4-1-9.2-8.3-17.5-16.4-8.2-8-17-16.3-19.5-18.2l-4.5-3.7 3-1.2c1.7-.6 6.8-1.6 11.5-2.2 4.7-.6 8.7-1.2 8.9-1.3.2-.2-.2-1.7-.9-3.4-1.3-3.1-6.8-6.9-18.5-12.8-3.3-1.6-8.8-5-12.2-7.6-6.5-4.7-21.6-18.6-21-19.2.3-.4 19.4-4.3 28-5.8l3.8-.7-3.3-6c-1.8-3.3-4.3-6.6-5.5-7.5-3.6-2.3-12.1-4.1-27.4-5.8-22.7-2.6-27.6-3.5-36-6.7-11.6-4.5-33.8-19.6-32.3-22 1.3-2.2 12.7-6.9 19-7.9 13.7-2.2 19.4-5.3 19.4-10.5 0-4.8-3.7-8.3-14.3-13.7-5.6-2.8-19-9.8-29.7-15.6-24.9-13.4-45.8-23.6-53.5-26.2-8.9-2.9-36.9-5.4-53.5-4.6-32 1.3-46.4 6.4-83.5 29.4-9.3 5.8-23.6 14-31.7 18.3-19.8 10.4-27.4 15.6-39.1 26.8-26.8 25.7-35.2 54.4-23 79.1 3.6 7.2 3.7 7.4 4.4 4.5.4-1.7.7-4.4.8-6 .2-4.7 5.6-15 10.7-20.5 12.8-13.7 40.8-26 59-26 13.1 0 29.5 3.5 39.8 8.4 10.8 5.2 27.5 10.6 40.5 13.1 8 1.6 10.5 1.7 18.1.7 12.8-1.7 20.2-1.5 27.3.9 15.9 5.3 24.9 14.5 32.7 33.4 5 12.3 7.8 17.3 14 25.5 7.6 10 11.4 16.4 13.5 22.8 1.7 5.3 1.7 5.3 3.7 3.5 1.2-1 4.2-6.3 6.8-11.8 4.5-9.4 8.3-14.5 12.1-15.8 4.2-1.4 9.5 6.3 13.2 19.3 3.6 12.3 4.9 24.6 4.5 40.8l-.3 14.2h3.5c4.8-.1 10.5-2.8 17.5-8.6 11-9 14.7-9.7 18.9-4 8.9 11.8 13.6 64.2 8.1 90.1-6 28.5-22.6 46.2-50.1 53.5-15.4 4-43 5-47.5 1.7-3.2-2.4-5.9-8.1-5.9-12.5 0-6.9 4-10.2 16.8-13.7 12.3-3.3 15.9-5.5 19-11.5 2.1-4 2.3-5.6 2-14-.3-8.3-.8-10.4-3.8-17-4-8.6-11-17.8-18-23.5-6.7-5.5-22.6-12.4-131.5-57-66.8-27.4-97.4-42.5-120-59.3-4.4-3.2-16.1-10.3-26-15.7-24.4-13.3-52.9-30.5-68.1-41.2-12.3-8.6-23.5-17.5-51.8-41.3-7.6-6.3-21.2-17.1-30.4-24-14.7-11-18.7-14.8-34.7-32-44.8-48.4-47.6-51.2-48.8-49.3-.7 1.1 18.2 54.4 22.3 62.8 3.4 7 28 40.5 41.3 56.4 18.9 22.5 65.5 68.7 116.2 115.2 10.4 9.6 21.5 19.8 24.5 22.6l5.5 5.3-5.5-1.6c-27.3-7.9-75.4-41.3-131-90.9-14.8-13.2-44.3-42.1-51-50l-4.2-5 .6 6.3c2.2 23.2 23.5 60 60.5 104.2 22.9 27.3 65 71.8 100.9 106.5 10 9.8 18 18 17.8 18.3-.8.7-20.5-11-34.1-20.2-33.4-22.8-81.6-60.1-99.3-77l-6.3-6 5.8 11.9c13.9 28.6 25.8 49.6 34.6 60.8 34.7 44.7 31.6 41.5 72.2 78.1 27.4 24.7 37.3 34.2 36.5 35-.6.6-4.3 1.1-8.3 1.1-6.3 0-7.9-.4-13.2-3.4-3.3-1.9-9.3-5.9-13.4-8.9s-11.1-7.8-15.5-10.7c-4.5-2.9-10.7-7.5-13.9-10.3-6.1-5.5-13.1-10.5-16-11.5-1.6-.6-1.7-.2-1.2 3.1 1.8 10.5 7.1 21.9 15.3 32.6 2.5 3.4 17.7 19.4 33.7 35.6 16.1 16.2 29.7 30.5 30.4 31.8.6 1.2 3.8 3.5 7 5.1 6.8 3.5 22.1 13.7 27.1 18.1l3.5 3-13.5-.3c-11.6-.3-14.6-.7-21.4-3-4.3-1.5-8-2.6-8.2-2.4-.2.2 2.8 6.7 6.7 14.5 6.6 13.4 7.6 14.8 19 26.9 6.6 7 16 17.2 21 22.5 5 5.4 14.3 13.7 20.6 18.5 6.3 4.9 14.9 11.7 19.1 15.2 18.6 15.6 38.9 27.2 108.2 62.1 53.4 26.8 68.3 34.9 73 39.6 2.2 2.2 2.5 3.3 2.5 9.7 0 6.2-.5 8.2-3.3 13.9-5.3 10.8-14.5 18.1-32.3 25.6-5.6 2.4-8.5 7.7-9.5 17.4-1.4 14.1 4.2 22.8 17.3 26.7 7.9 2.4 8.6 2.8 10.3 6 1.3 2.5.7 8.8-1.1 12.2-.5 1.1-4.1 3.5-8 5.4-16.5 8.3-21.5 20.6-17.9 43.4 1.4 8 .1 12.3-4.4 15-5.4 3.4-10 3.5-23.6.7-27-5.6-51.1-2-61.1 9.1-5 5.6-7.4 9.8-10.5 18.8-3.6 10.6-4 26.7-.9 33 6.9 13.7 34.5 19.3 45.3 9.2 5.7-5.3 7-13.7 2.7-17.7-2.1-2-4.2-2.5-13.7-3.4-13.2-1.3-13.8-2-8.9-9.7 5.4-8.6 18.8-12.9 40.1-12.9 9.4 0 16 2.9 22 9.7 4.6 5.3 5.8 8.9 6.6 19.8.7 9.1-.7 15.9-3.6 17.5-1.5.8-2.5.2-6-3.8-7.2-8.2-11-9.1-16.7-3.9-3.2 3-3.7 4.1-4.1 9.1-.4 4.9 0 6.5 2.7 12.1 5.6 11.3 14 15.8 29.6 15.7 12.6-.1 20.6-3.8 24.6-11.2 1.7-3.3 1.5-16-.5-32-1.8-14-2-27.9-.6-39 1.6-12.5 9.8-26.8 17.5-30.4 4.4-2.1 6.8-1.4 16.8 4.6 22.5 13.6 43.9 12.8 58.8-2.2 6-6.2 11.5-15.9 19.3-34.5 8-19 15.9-26.3 29.4-27.2 5.6-.4 7.4-.1 11.2 1.9 4.5 2.3 4.5 2.3 5.7 9.8 1.8 11.7 1.6 22.5-.8 31-5.1 18.7-23.9 51.6-51.9 91-6.4 9.1-12.5 18.7-13.5 21.3-1 2.6-3.3 6.9-5.2 9.5l-3.3 4.7 2.9.3c9.6 1 31.8-11.6 61.6-34.9 15.5-12.1 20.3-15.4 21.2-14.6 1.1 1.2-4.7 17-10.9 29.5-9.4 19-43.1 70.1-52.9 80.2-3.2 3.3-4.9 5.9-4.9 7.5 0 1.5-1.1 3.4-2.7 4.8-1.5 1.2-4.5 3.9-6.7 5.9l-4.1 3.8 5-.6c30.3-3.4 57.6-19.6 96.2-56.7 8-7.8 10.6-9.7 12.2-9.2 2.5.7 8.1 7.8 23.8 30 6.7 9.3 14.7 20.1 17.8 23.9l5.7 6.8 4-3.8c9.5-9.2 19.7-24.6 29.4-44.1 10.5-21.4 11.3-22.2 18.2-18.8 6.4 3 10.8 7.3 14.2 13.7 4.1 7.7 12.4 16.5 29.2 31 11.9 10.2 13.4 11.2 23 14.8 16.3 6.1 38.3 12 45.1 12 4.5 0 4.9-2 1.3-6.4-1.8-2.3-4.5-6.5-5.9-9.3-4.6-9.2-29.2-44-52.1-73.8-15.5-20-23-31.2-24.1-35.8-1-4 .8-3.4 7.3 2.2 20.5 17.6 54.2 33.2 74.2 34.3 4.3.2 5.5 0 5.5-1.2 0-.8.6-2.9 1.3-4.7 1.3-3 1.2-3.7-1.7-9.8-2.8-5.9-6.3-9.8-31-34.3-15.2-15.3-30.1-30.6-33.1-34.2-3.8-4.6-8.2-12.4-15.1-26.5-11.6-23.9-14.9-32.7-14.9-40 0-4.7.3-5.6 3-7.9 7-5.8 22.6-7.4 31.5-3.2 10 4.6 16.1 14.3 19.6 31.2 3.5 17 8.9 25.8 18.9 30.9 2.5 1.3 10.1 4.2 17 6.5 10.5 3.6 13.7 4.3 20.5 4.3 7.1.1 9.2-.4 19-4.2 10.9-4.3 11.1-4.3 16.9-3.2 9.1 1.9 16.8 5.1 20.2 8.5 2.5 2.5 3.5 4.9 4.9 11.1 2.2 9.7 1.2 16.8-3.4 23.9-3.8 6.1-5.5 14.2-4.8 22.8.7 8.2 3.3 13.5 10.4 20.9 11 11.6 23.2 13.8 38.1 6.9 8.7-4 16.7-11.8 17.7-17.3 1.3-6.6.1-19.9-2-24.2-1.8-3.7-2.3-4-6-4h-4l-4.5 9.2c-5.2 10.6-7.1 12.9-11.2 13.8-9.6 2.2-15-9-11.4-23.5 1.3-5.3 2.3-7.1 5.3-9.5 2-1.7 8.1-6.7 13.5-11.2 10.9-9.1 13.9-10.2 21.6-8.4 6.9 1.8 17.9 8.6 19.8 12.4 1.3 2.3 1.7 6 1.8 13.9.1 10.3.2 10.8 2.9 13.6 5 5.2 13.8 6.6 19.5 3.2 8.8-5.4 12.5-28 7.6-45.8-3.4-12.1-16.6-20.8-35.1-23.1-10.5-1.3-20.1-.1-40.5 5.1-13.3 3.4-17.2 4-19.5 3.2-3.3-1.1-13.3-15.3-13.3-18.7 0-1.2 1.1-6.3 2.5-11.2 5.1-18.4 3.5-21.7-19.2-41.2-8.8-7.6-11.6-15-7.3-19.3 1.6-1.6 3.3-2 9.5-2 8.6 0 12.1-1.3 14.1-5.1 5-9.8-1.5-24.9-27.6-63.9-13.5-20.3-17-25.9-17-27.9 0-2.2 8.2-6.4 25.2-13.1 63.5-25.1 101.6-47.4 149.8-87.9 21.4-17.9 75.7-73.8 73.7-75.7-.3-.4-13.8-.1-29.9.5-16.1.6-30.8.8-32.7.3l-3.4-.7 12.1-7.8c25.8-16.6 63.4-44.5 90.8-67.3 39.9-33.2 61-56.1 59-64-1.7-6.7-11.4-3.2-60.1 21.6-21.4 10.9-41.7 21-45 22.5l-6 2.6 3.5-3.7c1.9-2 17-15.9 33.5-30.8 64.1-57.9 97.8-94.1 112.8-120.9 7.3-13 12.8-32.7 9.2-32.7-2.1 0-13.2 7.8-46.5 32.6-48.8 36.4-67.8 49.5-85 58.7-10.1 5.4-18.7 8.4-20.1 7-.6-.6 8.3-9.9 25.8-26.5 34.4-32.8 83.7-82.7 102.7-103.8 42.9-47.7 68.6-87 68.6-104.8 0-2-.6-1.6-4.1 3-2.3 2.9-13.7 14.7-25.3 26.3-77 76.5-146.2 125.8-171.3 122-2.4-.3-4.3-.9-4.3-1.3 0-2 5.1-8.5 11.4-14.7 7.7-7.5 16.9-15.1 56.1-46.3 32.6-25.9 43.2-35.6 54.2-49.3 5-6.3 17.8-21.1 28.3-32.8 10.5-11.8 22.2-25.1 25.9-29.5 31.4-37.2 47.3-64.9 51.1-89.1 1.1-6.8.5-19.5-.8-19.5-.4 0-5.4 5.2-11.2 11.6zm-406.3 62.9c8.7 2.6 13.3 9.7 11.8 18.5-.8 4.6-1.4 5.2-7.9 7.3-19.1 6.4-42.1 3.5-53.3-6.8l-4.8-4.3 3.3-3.5c9.6-9.9 35.8-15.7 50.9-11.2zM766 559.7c5.7 1.5 15 6.1 15 7.3 0 1.5-4.4 6.2-7.9 8.4-8.6 5.5-21 7.5-31.7 5.3-8.9-1.9-13.8-4.4-18.8-9.5l-3.8-4 3.8-2.6c10.3-6.9 28.5-9 43.4-4.9zm387.8 525l.2 119.3H879V965l137.3.2 137.2.3.3 119.2zM1585.8 1267.2c-1.7 3.6-24.6 44.9-26.9 48.5-1.2 2-1.2 2.5.3 3.9 1.5 1.5 2.4 1.4 12.4-.9 19.8-4.6 34.6-7 35.4-5.6 1.1 1.6 7 26.2 7 28.8 0 2.9 2.2 7.1 5.3 10l2.6 2.3 2.9-5.8c1.7-3.3 8-14.6 14.1-25.3 6.1-10.7 11.1-20.6 11.1-21.9 0-1.8-2.5-5-8.3-10.9l-8.3-8.5-2.3 1.9-2.3 1.9 2.6 5.2c1.4 2.8 2.6 6.4 2.6 7.9 0 3.8-14.9 29.2-16 27.2-.4-.8-2.3-7.9-4.1-15.9-1.8-8-3.8-15.1-4.5-15.9-1-1.1-2.9-.9-12 1.2-12.9 3-20.4 4.2-20.4 3.2 0-.4 2.3-4.8 5.1-9.6 5.7-10.1 7.3-11 14.5-8.6 4.4 1.4 4.5 1.4 6.1-1 1.6-2.5 1.6-2.6-1.1-4.6-1.6-1.1-5.1-4-7.9-6.4-2.8-2.3-5.4-4.3-5.7-4.3-.3 0-1.3 1.5-2.2 3.2zM463.5 1306.1c-5.1 1.3-43.4 6-54.7 6.6l-10.7.6-3.7-3.7c-4-4-4.3-4.1-6.8-2.3-1.6 1.2-1.3 2.3 5.5 15.2 4 7.7 7.3 14.1 7.5 14.3.2.3 4.2-1.5 5.2-2.3.2-.2-.2-2.1-.9-4.4-1.5-5-.4-6.6 4.9-7.5 2-.4 4.9-.9 6.3-1.2 2.5-.5 3 .1 7.3 8 2.5 4.7 4.6 9.1 4.6 9.7 0 1.9-6.8 9.7-9.1 10.4-1.5.5-2.9-.1-4.8-1.9-2.7-2.6-2.8-2.6-5.1-.8l-2.3 1.9 4 6.9c2.2 3.8 6.2 11.2 8.8 16.4 2.6 5.2 4.9 9.6 5 9.8.1.2 1.5 0 3-.4 2.5-.6 2.6-.9 1.9-4.3-1.2-6-.8-7.9 3.4-13.4 4.8-6.3 36.8-42.7 39.1-44.3 1.4-1.1 1.3-1.8-1.4-7.4-1.6-3.4-3.2-6.3-3.5-6.4-.3-.2-1.8.1-3.5.5zm-13.5 10.4c0 .7-13.1 14.9-14.1 15.3-.8.3-7.4-11.7-6.7-12.3.4-.3 16.6-3.2 19.1-3.4.9 0 1.7.1 1.7.4zM1553.4 1328.3c-2.1 3.4-6.6 10.4-10.1 15.6-3.5 5.1-6.3 9.7-6.3 10.1 0 .5 1 1.6 2.1 2.4 2 1.4 2.3 1.2 4.6-1.5 1.5-1.7 3.4-2.9 4.9-2.9 1.3 0 6.2 2.5 10.9 5.5l8.5 5.5-2.6 4.2c-5.6 8.9-12.5 18.8-13.1 18.8-1.3 0-14.9-8.9-16.7-10.9-1.7-1.9-1.8-2.6-.7-6.2s1-4.2-.6-5.5c-1-.7-2.1-1.4-2.4-1.4-.3 0-2.3 2.8-4.4 6.2-2.1 3.5-6.7 10.6-10.2 15.8-6.2 9.3-6.3 9.5-4.4 11.4 1.9 1.9 2 1.9 5.7-1.3 2.2-2 4.4-3.1 5.5-2.8 3 .8 43.9 27.8 44.9 29.7.7 1.2.5 3.1-.4 5.8-1.3 3.7-1.3 4.2.3 5.6 2.5 2.3 3.4 2 5.6-1.7 1-1.7 5.6-9 10.2-16 4.8-7.3 8.2-13.5 7.9-14.3-1.1-2.8-3.6-2.6-7.1.5-2 1.7-4.1 3.1-4.8 3.1-1 0-17.4-9.7-19.6-11.6-.5-.4 14.7-23.4 15.6-23.4 1.7 0 18.3 11.6 18.8 13.2.3.9-.1 3.3-.9 5.2-1.5 3.5-1.4 3.7 1 5.2 1.3.9 2.6 1.5 2.8 1.3.2-.2 3.7-5.8 7.9-12.4 4.2-6.6 8.7-13.5 10.1-15.4 3.2-4.2 3.2-5.7.5-7.2-1.8-.9-2.6-.6-5.3 2-1.8 1.7-4.1 3.1-5.3 3.1-2 0-41-24.4-44.8-28.1-1.7-1.7-1.8-2.3-.8-6.1 1.3-4.7 1.1-5.3-1.7-6.8-1.6-.9-2.4-.2-5.6 5.3zM489.3 1355.2c-2.8 1.3-2.8 1.7-.6 7.9 1.7 4.8 1.7 4.9-.3 6.9-2.1 2.1-19.4 11.8-35.9 20.1-9.2 4.6-10.3 4.9-12.8 3.8-1.5-.7-3.4-2.3-4.2-3.6-1.8-2.6-3.3-2.9-5.9-1-1.8 1.3-1.4 2.2 6.2 13.8 11.7 17.9 10.5 16.5 13.5 15.2l2.5-1.2-2-5.5c-2.1-5.5-2.1-5.7-.2-7.7 1-1.2 7.8-5.6 14.9-9.9 16.4-9.7 20-11.6 18.9-9.8-2.6 4.3-19.6 29.5-24.1 35.5-5.7 7.8-6 8.8-3.9 11.6 1.4 1.8 2.5 1.7 28.6-2.6 16.5-2.6 26.6-3.9 25.8-3.2-2.4 2.2-30.3 19.8-33 20.9-2.4.9-3.1.7-5.6-1.7-3.2-3.1-4.1-3.2-6.6-1.4-1.7 1.2-1.2 2.2 6.1 13.3 4.3 6.5 9.3 14.3 11.1 17.1 3 5 3.3 5.2 5.7 4.1 2.9-1.3 3-1.7 1-6.6-.9-2-1.4-4.6-1.1-5.8.8-3.2 40.7-31.4 44.5-31.4 1.1 0 3.6 1.4 5.6 3.1 3.5 3.1 6 3.3 7.1.5.3-.8-2.6-6.2-6.7-12.3-8.9-13.4-8.1-12.6-11.2-11.4-2.8 1.1-36.8 6.1-41.2 6.1-2.4 0-2.2-.5 5.3-12.8 7-11.3 14-22.2 16.6-25.7.6-.8-1.7-5.4-7.3-14.4-4.6-7.2-8.3-13.1-8.4-13-.1 0-1.2.5-2.4 1.1zM1505.5 1409.7c-5 2.6-9.4 7.3-16.5 17.8-3.7 5.5-9.5 13.8-12.9 18.5-6 8.3-6 8.5-4.2 10.4 1.9 1.8 2 1.8 5.7-1.3 2.1-1.7 4.6-3.1 5.5-3.1 1.6 0 38.1 25.1 42.7 29.3 2.5 2.3 2.7 4.6 1 9.4-1 2.9-1 3.6.2 4.3 2.9 1.8 4 .9 10.1-8.3 3.5-5 8.7-12.5 11.7-16.6l5.4-7.3-2.1-2.1-2.1-2.1-3.8 3.7c-2.3 2.3-4.7 3.7-6.3 3.7-2.5 0-45-28.9-45.8-31.1-.6-1.9 2.1-5.9 5.5-7.9 5.9-3.7 14.7-1.6 21.1 5 4.3 4.5 5 8 2.4 13.1-2.7 5.2-2.7 5.6 1.1 6.4 3.7.9 5.5-.9 9.6-9.5 6.2-13.1 1.1-27.3-11.5-32.7-4.3-1.8-13.1-1.6-16.8.4zM540.7 1451.8c-1.5 1.7-1.3 2 3.1 5.2 13.3 10 12.4 22.3-2.8 36.4-7.9 7.3-19.7 15.6-22.2 15.6-1.1 0-4-1.6-6.4-3.7-4.5-3.6-4.5-3.6-6.5-1.7-1.9 2-1.8 2.1 7.3 13.6 5.1 6.3 11.1 14.1 13.3 17.2 4.3 6 5.1 6.4 8 4.2 1.9-1.4 1.9-1.5-.3-5.4-1.2-2.2-2.2-4.8-2.2-5.9 0-2.3 3.8-6 14-13.7 10.8-8.1 17.1-11 25.2-11.4 8.9-.5 14.1 2.3 18.2 9.7 2.3 4.4 3 5 4.6 4.1 3.2-1.7 6.2-6.8 5.5-9.2-2.4-7.7-11.9-13.8-21.5-13.8-5 0-12.4 1.5-17.5 3.6-1.3.5-.6-.8 2.1-3.9 6-6.8 7.9-11.2 7.9-17.9-.1-4.7-.6-6.4-3.5-10.7-3.9-5.8-9.9-10.5-16.1-12.6-5.5-2-8.2-1.9-10.2.3zM1464.3 1459.8c-2.7 4.8-31.2 41.4-36.4 46.7-2.1 2.3-3.9 4.3-3.9 4.6 0 .3 3.6 4.3 8 8.9l8 8.4 2.4-2.3 2.4-2.3-3.4-6.2c-1.9-3.5-3.4-7-3.4-7.8 0-1.8 6.7-10.8 8.1-10.8 1 0 30.7 23.1 37.2 28.9 5.9 5.3 6.1 6.3 3.2 12.1-2.7 5.3-2.6 6.3.4 7.9 1.5.8 2.8-.4 8.2-7.6 3.5-4.8 9.6-12.7 13.7-17.6l7.3-9-2-2-2-2-4.7 3.6c-2.6 2-5.3 3.7-5.9 3.7-.7 0-3.4-1.7-6.1-3.7-4.7-3.5-36.1-27.9-37.7-29.3-.4-.4 1-3 3.3-5.8 4.7-6.1 6.6-6.4 14-2.7l4.9 2.5 1.9-2.5 1.9-2.4-8.2-8.6c-4.5-4.7-8.4-8.5-8.6-8.5-.2 0-1.4 1.7-2.6 3.8zM603.6 1520.9c-1.6 1.8-1.6 2.1.5 6.4 1.9 3.9 2 4.9 1 7.4-1.5 3.7-30.8 29.6-37.3 32.9-3 1.6-4.4 1.2-10.5-2.6-1.9-1.2-2.4-1.2-4.2.4-2 1.8-1.9 1.9 6.2 10.9 4.5 5 9.8 10.8 11.7 13l3.6 3.9 2.4-2 2.3-1.9-2-2.9c-2.7-3.8-3.6-6.9-2.8-9.4.6-2 29.5-29.4 30.2-28.6.3.2-7.4 43.4-11.2 63.1-.5 2.5.1 3.8 4 8.3l4.7 5.2 10.6-9.9c15.6-14.4 30.1-26.8 34.9-29.7l4.3-2.6 4.4 2.3c3.7 1.8 4.8 2 6.1.9.8-.7 1.5-1.7 1.5-2.3 0-.6-2.8-4-6.3-7.6-3.4-3.6-8.3-9.1-10.9-12.1l-4.7-5.5-2.2 2.2-2.2 2.2 2.6 4c1.5 2.2 2.7 5.1 2.7 6.3 0 2.9-26.3 28.7-26.8 26.3-.4-1.7 7.4-51.5 8.7-56.3.8-2.6.5-3.4-2.1-5.9-1.6-1.5-5.9-6.3-9.5-10.6-3.7-4.2-6.9-7.7-7.3-7.7-.4 0-1.5.8-2.4 1.9zM1396.5 1543.4l-4.5 5.3 3.5 5.9c7.1 11.8 25.7 50.2 26.2 54.2.4 3.1 0 5-1.5 7.6l-2 3.4 2.2 2.1 2.3 2.2 4.8-5.8c2.7-3.2 7.6-8.6 10.9-12.1l6-6.2-2.1-2.2-2.2-2.2-3.7 2.7c-2.8 2-4.2 2.4-5.5 1.6-2.1-1.1-6.9-8.8-6.9-11.1 0-1.5 10.1-13.6 12.6-15.1 1.4-.8 11.1 2.7 13.3 4.8 1.3 1.3 1.3 1.9-.1 4.9-1.6 3.2-1.6 3.5.1 5 2.5 2.3 3 2.1 7-2.6 2-2.4 7.6-8.7 12.4-14.1 8.7-9.6 9.8-11.9 6.3-13.3-.9-.3-2.9.4-4.5 1.5-1.6 1.2-4.5 2.1-6.5 2.1-3.3 0-42.4-14.3-57.3-21.1l-6.3-2.8-4.5 5.3zm25.8 22.8c2.6 1.1 4.7 2.6 4.7 3.2-.1 1.3-7.7 9.6-8.9 9.6-.4 0-1.5-1.5-2.4-3.3-.9-1.7-3.2-6-5.2-9.5l-3.6-6.2 5.3 2.1c2.9 1.1 7.4 3 10.1 4.1zM1363.5 1579.1c-3.3 3.4-16.8 16.5-30 29.1-13.2 12.7-24.1 23.6-24.3 24.3-.2.6.4 1.8 1.3 2.5 1.3 1.1 2.2 1 5.4-.8 2.1-1.2 4.6-2.2 5.4-2.2 1.7 0 36.4 35.3 37.9 38.6.8 1.8.6 3.1-1.1 5.9-2.5 4.3-2.6 5.8-.6 7.5 1.2 1 3.9-1.1 16-12.6 8-7.7 14.5-14.2 14.5-14.5 0-.3-.6-1.4-1.4-2.4-1.4-1.9-1.5-1.9-5.4.3-2.2 1.2-4.8 2.2-5.9 2.2-1.6 0-13.8-11.8-33.8-32.8l-5.9-6.2 8.9-9c4.9-5 9.5-9 10.1-9 .7 0 9.6 8.6 19.8 19.1 13 13.4 18.6 19.8 18.6 21.4 0 1.2-.9 3.4-2.1 4.9-2.2 2.8-2 5.2.6 6.2 1.8.7 29.7-25.4 29.3-27.5-.6-3-3.4-3.5-6.6-1.3-5.8 4.2-6.5 3.7-26.1-16.4-19.5-20-20.3-21.4-16.1-26.6 1.7-2.3 1.8-2.7.4-4.6-.8-1.2-1.8-2.2-2.2-2.2-.4 0-3.4 2.7-6.7 6.1zM667.7 1592.7c-1.4 1.7-1.3 2.1.9 4.8 4.6 5.8 5.2 4.8-20.5 32.3-6.4 6.8-12.4 12.8-13.3 13.3-1.9 1-6.6-.8-10.1-3.9-1.6-1.4-2-1.4-4 .7l-2.2 2.2 5.6 5.2c3 2.9 13.5 12.7 23.2 21.9 9.7 9.3 18.4 16.8 19.2 16.8 1.7 0 13.8-5.9 16.9-8.2 1.7-1.4 1.7-1.6.2-4.5l-1.5-3.1-4.2 1.4c-2.3.8-6.1 1.7-8.5 2.1-4.3.6-4.4.5-11.9-6.7-4.9-4.8-7.5-8.1-7.5-9.6 0-1.4 2.6-5 6.9-9.6l6.9-7.3 5.1 5c6.1 5.9 6.7 7.4 4.7 11.4-2 3.8-2.1 3.8.9 5.7 2.5 1.7 2.5 1.6 11.6-7.6l9.1-9.3-2.5-2.5-2.5-2.5-3.5 2.2c-1.9 1.1-3.8 2.1-4.1 2.1-.4 0-3.4-2.5-6.6-5.6l-5.9-5.6 7.1-7.9c3.9-4.3 7.7-8 8.4-8.3 1.7-.6 14.3 11 15 13.9.3 1.3-.3 3.9-1.5 6.3-2.6 5.1-2.6 4.8.4 6.8 2.5 1.6 2.6 1.5 9.2-4.7 3.8-3.4 6.9-6.5 7.1-6.9.1-.4-2.6-3-6-5.9-3.5-2.9-13.6-12.2-22.5-20.7-8.8-8.5-16.5-15.4-17.1-15.4-.5 0-1.6.8-2.5 1.7zM725.7 1646.8c-1 1-1.5 2.1-1.2 2.4.9.9 2.5 43.2 1.6 44.1-1.1 1.1-12.3 2.4-25.7 3.1-7.9.4-10.8.9-13.7 2.6-4.3 2.6-4.5 3.2-1.4 5.3 1.3.9 11.4 8.7 22.4 17.5 11 8.7 20.8 16.2 21.7 16.5 3.4 1.3 21.6-10.7 21.6-14.2 0-3.4-2.3-4.3-7-2.6-8.2 2.9-9.5 2.4-22.4-8.1-8.4-6.9-11.5-9.9-10.5-10.4.8-.4 8.2-1.2 16.6-1.8 8.3-.6 15.6-1.3 16.2-1.6.7-.5.8-6.4.4-17.3l-.6-16.7 6.1 4.7c7.1 5.5 12.2 10.4 12.2 11.8 0 .6-1 3.2-2.1 6-1.7 4-1.9 5.2-.9 6.4.7.8 1.7 1.5 2.2 1.5 1.1 0 15.8-12.2 15.8-13.1 0-.4-1.2-1.5-2.7-2.5-4.3-2.8-43.1-33.3-43.8-34.4-1-1.5-3-1.2-4.8.8zM1265 1666.7c-3 2.5-9.9 7.9-15.3 12-6.1 4.6-9.5 7.9-9.1 8.6 2.1 3.6 2.5 3.7 6.6 1.6 2.2-1.1 4.8-1.7 5.9-1.4 3.1 1 33.9 40.8 33.9 43.8 0 .8-1.2 3-2.6 4.7-2.3 2.7-2.5 3.5-1.6 5.6.7 1.3 1.5 2.4 1.9 2.4.5 0 4.2-2.8 8.3-6.1 4.1-3.4 11.1-8.9 15.5-12.2 4.4-3.3 8.2-6.2 8.4-6.3.2-.2-.4-1.5-1.3-2.9l-1.7-2.5-4 2.1c-2.4 1.2-5.1 1.8-6.3 1.5-2.9-.7-34.6-41-34.6-44 0-.3 1.3-2 3-3.9 2.7-3.1 2.8-3.5 1.4-5.5-.8-1.2-1.8-2.2-2.2-2.2-.4 0-3.2 2.1-6.2 4.7zM1223.4 1700.3c-2.8 1.4-9.1 5.4-14 8.9s-13.1 9.2-18.1 12.6c-5.1 3.5-9.3 6.6-9.3 7 0 .4.7 1.5 1.5 2.6 1.3 1.8 1.6 1.8 5.6.2 2.2-.9 5-1.4 6-1.1 1.5.5 13.8 17.2 27.6 37.5 4.7 7 4.8 8.3 1.3 12.4-2.6 2.9-2.9 3.8-2 5.6.6 1.1 1.6 2 2.2 2 .6 0 4.9-2.9 9.7-6.4 4.7-3.5 12.1-8.6 16.4-11.5 7.8-5.2 8.9-6.9 6.2-9.1-1.2-1-2.4-.8-6.5.9-7.2 3.1-5.2 5.1-27.9-27.7-11-15.8-11.3-16.3-9.6-18.2 1-1.1 3.6-2.5 5.7-3.2 5.6-1.6 10.8.2 15.3 5.4 6.5 7.6 7 14.8 1.4 19.7-3.4 3-3.7 4.6-.8 6.1 3 1.7 6.9-.3 12.4-6.1 5.7-6.1 7.5-10.3 7.5-17.3s-4-15-9.6-18.9c-5.9-4.1-14.1-4.7-21-1.4zM791.3 1708.5c-10.6 3.3-19.3 11.2-24.7 22.5-2.8 5.9-3.1 7.4-3.1 16 0 11.8 2.1 16.8 11 25.5 16.4 16.2 38.5 19 54 6.8 5.9-4.6 12.3-13.8 14.5-21 2.4-7.8 2.5-13.1.4-20.4-5.8-20.3-32.8-35.5-52.1-29.4zm26.5 10.6c9 4.4 12.1 14.3 8.3 26.6-5.1 16.6-18.4 31.3-28.3 31.3-9.5 0-17.8-9.6-17.8-20.6 0-14.2 14.4-34.6 27.1-38.2 5-1.5 5.8-1.4 10.7.9z"/><path d="M798.6 1734.9c-1.5 1.6-5.2 4.6-8.1 6.7-3 2.2-5.5 4.4-5.5 5 0 2 3.4 4.4 5 3.4 2.4-1.5 4.8-1.2 8.5 1.2 2.9 1.9 3.5 2.8 3.3 5.2-.2 1.9.3 3.3 1.5 4 1.9 1.2 1.2 1.7 12.4-6.8 4.3-3.3 7.9-6.1 8.1-6.2.2-.1-.2-1.2-.8-2.4-1-1.8-1.7-2.1-5.1-1.5-3 .5-4.6.2-7.3-1.4-3.5-2.2-5-4.6-4-6.2.8-1.4-1.5-3.9-3.5-3.9-1 0-3 1.3-4.5 2.9zM1172.9 1732.8c-3.3 2.6-21.6 13.8-36.3 22.3-6.6 3.9-12.8 7.8-13.7 8.9-.8 1-4.2 3.1-7.5 4.8-5.9 3-57.9 27.1-66.1 30.7-4.8 2-4.9 2.2-2.8 5.1 1.3 1.9 1.9 2 5.3 1.1 2.1-.6 4.6-.7 5.6-.4 2.2.9 23.6 46.1 23.6 50 0 .9-1.6 2.9-3.5 4.4-3.7 3-4.4 5.3-2.1 7.2 1.1 1 3.7.1 12.3-4.2 5.9-2.9 13.9-6.7 17.6-8.3 6-2.6 6.8-3.2 6.5-5.4-.3-2.4-.6-2.5-5.9-2.2-4.3.2-5.9-.1-7.1-1.5-2.4-2.6-23-47.4-22.4-48.7.2-.6 5.3-3.3 11.2-6 7.7-3.5 11.1-4.6 12.2-3.9 1.8 1.1 23.2 46.8 23.2 49.4 0 1.1-1.6 2.9-3.5 4.1-3.8 2.5-4.2 3.5-2.2 6.2 1.2 1.7 2.3 1.3 16.8-5.4 8.4-4 16.4-7.6 17.7-8.1 2.2-.9 2.8-3.3 1.3-5.7-.6-1.1-1.7-1.1-5-.2-3.5.9-4.7.9-6.5-.3-2.2-1.5-23.6-45.8-23.6-48.9 0-2.2 9.7-10.6 13.2-11.3 2.7-.6 3.6-.3 5.5 1.9 4.2 4.9 26.3 42.9 26.3 45.2 0 1.5-1.4 3.4-4 5.5-4.3 3.5-4.7 4.4-2.6 7.2 1.3 1.7 2.2 1.3 14.3-6.1 7-4.4 19.3-11.8 27.3-16.4 13.8-7.9 14.5-8.5 14.8-11.7.4-3.5-2.6-17.8-3.8-18.6-.4-.2-2-.1-3.6.4-2.8.7-2.9.9-3 7.9-.1 4.6-.7 8-1.7 9.6-.9 1.3-5.4 4.3-10.1 6.7-6.9 3.6-8.9 4.2-10.3 3.3-1-.6-3.9-4.7-6.5-9-5.4-9-5.5-8.6 3.6-13.4l5.9-3 3.4 2.6c3.2 2.4 3.5 2.5 5.8 1 1.4-.9 2.5-1.9 2.5-2.2 0-.4-6.2-11.1-11.9-20.4-1.4-2.3-6.8.9-6.2 3.6 1.3 5.8.8 6.8-5.9 11.1-3.8 2.6-6.8 3.9-7.3 3.4s-3.3-4.9-6.3-9.7c-3.9-6.3-5.1-9.1-4.3-10 1.9-2.3 14.7-9.4 17-9.4 1.3 0 3.8 1.4 5.6 3.2 2.9 2.8 3.5 3 5.8 2 1.4-.6 2.5-1.6 2.5-2.1 0-.9-7.5-17-8.3-17.8-.2-.2-1.5.5-2.8 1.5zM886 1765.9c-9.7 9.8-33.4 31.6-38.5 35.4-3.6 2.6-4.5 2.9-9.8 2.4-5.5-.5-5.9-.4-7 2.1-.7 1.6-.8 2.7-.2 2.9.6.2 7 3.2 14.4 6.8 10.4 5.1 13.7 6.3 14.7 5.4 2.2-1.8 1.6-4.4-1.6-6.7-4.1-3.1-3.8-5.4 1.3-10.7l4.4-4.5 3.9 1.6c2.1.9 6.5 3 9.7 4.6l5.9 2.9-.7 6.2c-1 8.8-1.8 9.8-6.3 9.1-3.4-.5-3.9-.3-5 2.1-1.1 2.5-1 2.7 2.5 4.2 2.1.8 10 4.6 17.5 8.4l13.8 6.9 1.5-2.4c1.6-2.4 1.5-2.6-2.2-6l-3.8-3.5.2-9.8c.1-5.4 1.4-21 2.8-34.7 1.4-13.7 2.4-25 2.3-25-.2-.1-2.9-1.4-6.1-2.9-3.1-1.5-5.8-2.6-6-2.6-.1.1-3.6 3.6-7.7 7.8zm-.2 20.6c-.6 5.5-1.4 10.3-1.7 10.7-.4.4-3.5-.6-7.1-2.3l-6.4-3 7.9-7.9c4.3-4.4 8-7.8 8.2-7.7.1.2-.3 4.8-.9 10.2zM942.9 1785.7c-.8 2.3-.5 2.9 3.1 6 4.8 4.1 5.1 2.3-3.7 23.3-13.8 32.9-13.9 33-20.7 31.1-2.7-.7-3.8-.6-4.6.4-2.7 3.2-.5 4.8 16 11.7 9.1 3.9 17.3 7.1 18.4 7.2 1 0 2.3-.7 3-1.7.9-1.4.4-2.3-3.4-5.6l-4.4-3.8 1.2-3.9c.7-2.1 5.4-13.6 10.5-25.4l9.2-21.5 5.5.2c3.2 0 5.8-.4 6.2-1 1.8-2.8.7-4.5-3.9-6.2-2.7-1-10.8-4.4-18.1-7.6l-13.3-5.8-1 2.6z"/></svg>